<?xml version="1.0" encoding="UTF-8"?>
<svg xmlns="http://www.w3.org/2000/svg" xmlns:xlink="http://www.w3.org/1999/xlink" version="1.2" >
<font id="DIN-Regular">
<font-face  font-family="DIN" units-per-em="1000" ascent="773.926" descent="-225.83" font-style="normal" font-weight="400" font-stretch="normal" cap-height="750" x-height="500" underline-position="-113.5" underline-thickness="51" />
<missing-glyph  horiz-adv-x="1000" d="" />
<glyph glyph-name="NULL" d="" />
<glyph glyph-name="CR" unicode="&#xd;" horiz-adv-x="250" d="" />
<glyph glyph-name="space" unicode="&#x20;" horiz-adv-x="249" d="" />
<glyph glyph-name="exclam" unicode="&#x21;" horiz-adv-x="316" d="M215 712 L132 712 L142 200 L204 200 L215 712 Z M216 0 L216 84 L130 84 L130 0 L216 0 Z " />
<glyph glyph-name="quotedbl" unicode="&#x22;" horiz-adv-x="423" d="M335 542 L335 712 L256 712 L256 542 L335 542 Z M167 542 L167 712 L88 712 L88 542 L167 542 Z " />
<glyph glyph-name="numbersign" unicode="&#x23;" horiz-adv-x="653" d="M602 432 L602 498 L515 498 L549 713 L476 713 L442 498 L283 498 L318 713 L243 713 L209 498 L108 498 L108 432 L200 432 L177 291 L77 291 L77 227 L166 227 L130 0 L204 0 L239 227 L399 227 L363 0 L437 0 L473 227 L572 227 L572 291 L483 291 L506 432 L602 432 Z M432 432 L409 291 L250 291 L273 432 L432 432 Z " />
<glyph glyph-name="dollar" unicode="&#x24;" horiz-adv-x="596" d="M540 196 C540 255 518 304 479 337 C449 363 416 376 350 387 L319 392 L319 651 C380 647 421 625 459 591 L508 640 C453 689 399 713 322 717 L322 806 L262 806 L262 717 C137 707 61 630 61 517 C61 460 80 416 116 384 C144 360 192 335 246 330 L266 328 L266 63 C198 66 147 87 94 140 L42 88 C104 26 168 -2 262 -6 L262 -114 L322 -114 L322 -4 C454 5 540 80 540 196 L540 196 Z M266 399 C232 404 196 415 168 438 C146 457 136 485 136 520 C136 594 183 644 266 651 L266 399 Z M464 194 C464 117 409 69 319 63 L319 320 C361 314 396 312 429 283 C452 263 464 231 464 194 L464 194 Z " />
<glyph glyph-name="percent" unicode="&#x25;" horiz-adv-x="833" d="M769 128 L769 233 C769 315 711 368 634 368 C556 368 499 315 499 233 L499 128 C499 46 556 -7 634 -7 C711 -7 769 46 769 128 L769 128 Z M614 712 L554 712 L220 0 L280 0 L614 712 Z M335 479 L335 584 C335 666 277 719 200 719 C122 719 65 666 65 584 L65 479 C65 398 122 345 200 345 C277 345 335 398 335 479 L335 479 Z M712 130 C712 77 688 43 634 43 C579 43 556 76 556 130 L556 231 C556 285 579 318 634 318 C688 318 712 284 712 231 L712 130 Z M278 481 C278 428 254 395 200 395 C146 395 122 427 122 481 L122 582 C122 636 145 669 200 669 C254 669 278 635 278 582 L278 481 Z " />
<glyph glyph-name="ampersand" unicode="&#x26;" horiz-adv-x="739" d="M671 0 L562 131 C608 186 627 259 628 349 L556 349 C555 269 545 230 516 186 L334 405 C351 417 387 441 387 441 C432 472 466 511 466 568 C466 653 400 718 311 718 C220 718 154 654 154 569 C154 505 196 456 231 414 C153 362 77 308 77 201 C77 77 164 -6 302 -6 C416 -6 483 51 512 78 L576 0 L671 0 Z M395 568 C395 527 364 502 331 479 C331 479 305 461 293 453 C246 510 229 537 229 570 C229 618 262 653 311 653 C359 653 395 616 395 568 L395 568 Z M469 130 C408 75 354 61 301 61 C213 61 151 118 151 203 C151 284 212 324 273 366 L469 130 Z " />
<glyph glyph-name="quotesingle" unicode="&#x27;" horiz-adv-x="255" d="M167 542 L167 712 L88 712 L88 542 L167 542 Z " />
<glyph glyph-name="parenleft" unicode="&#x28;" horiz-adv-x="298" d="M234 -45 C211 -22 193 -6 180 20 C170 40 164 68 164 101 L164 611 C164 644 170 672 180 692 C193 718 211 734 234 757 L185 806 C153 774 131 753 113 720 C95 687 92 652 92 617 L92 95 C92 60 95 25 113 -8 C131 -41 153 -62 185 -94 L234 -45 Z " />
<glyph glyph-name="parenright" unicode="&#x29;" horiz-adv-x="298" d="M205 95 L205 617 C205 652 203 687 185 720 C167 753 145 774 113 806 L62 755 C85 732 104 716 117 690 C127 670 131 643 131 611 L131 101 C131 69 127 42 117 22 C104 -4 85 -20 62 -43 L113 -94 C145 -62 167 -41 185 -8 C203 25 205 60 205 95 L205 95 Z " />
<glyph glyph-name="asterisk" unicode="&#x2a;" horiz-adv-x="474" d="M407 472 L287 537 L407 603 L379 651 L262 580 L266 717 L208 717 L212 580 L96 651 L67 603 L187 537 L67 472 L96 423 L212 494 L208 357 L266 357 L262 494 L379 423 L407 472 Z " />
<glyph glyph-name="plus" unicode="&#x2b;" horiz-adv-x="522" d="M470 234 L470 301 L295 301 L295 475 L228 475 L228 301 L52 301 L52 234 L228 234 L228 58 L295 58 L295 234 L470 234 Z " />
<glyph glyph-name="comma" unicode="&#x2c;" horiz-adv-x="264" d="M176 -65 L176 88 L88 88 L88 -144 L176 -65 Z " />
<glyph glyph-name="hyphen" unicode="&#x2d;" horiz-adv-x="426" d="M350 236 L350 303 L76 303 L76 236 L350 236 Z " />
<glyph glyph-name="period" unicode="&#x2e;" horiz-adv-x="270" d="M182 0 L182 94 L88 94 L88 0 L182 0 Z " />
<glyph glyph-name="slash" unicode="&#x2f;" horiz-adv-x="355" d="M356 786 L285 786 L0 -74 L71 -74 L356 786 Z " />
<glyph glyph-name="zero" unicode="0" horiz-adv-x="522" d="M456 190 L456 522 C456 640 372 718 261 718 C150 718 66 640 66 522 L66 190 C66 72 150 -6 261 -6 C372 -6 456 72 456 190 L456 190 Z M384 194 C384 116 340 58 261 58 C182 58 138 116 138 194 L138 518 C138 596 182 654 261 654 C340 654 384 596 384 518 L384 194 Z " />
<glyph glyph-name="one" unicode="1" horiz-adv-x="522" d="M330 0 L330 712 L258 712 L125 597 L125 515 L258 632 L258 0 L330 0 Z " />
<glyph glyph-name="two" unicode="2" horiz-adv-x="522" d="M461 0 L461 64 L155 64 L404 382 C443 432 461 469 461 526 C461 643 382 718 265 718 C146 718 69 637 69 525 L141 525 C141 617 199 654 265 654 C343 654 389 603 389 526 C389 487 376 456 349 421 L68 64 L68 0 L461 0 Z " />
<glyph glyph-name="three" unicode="3" horiz-adv-x="522" d="M460 194 C460 283 423 341 351 368 C415 397 447 451 447 526 C447 642 367 719 251 719 C143 719 59 651 51 536 L123 536 C130 609 176 655 251 655 C320 655 375 610 375 525 C375 445 335 396 248 396 L233 396 L233 333 L248 333 C345 333 388 281 388 195 C388 108 328 57 251 57 C183 57 120 92 114 181 L42 181 C48 52 139 -7 251 -7 C367 -7 460 63 460 194 L460 194 Z " />
<glyph glyph-name="four" unicode="4" horiz-adv-x="522" d="M482 113 L482 178 L395 178 L395 380 L324 380 L324 178 L117 178 L374 712 L297 712 L40 178 L40 113 L324 113 L324 0 L395 0 L395 113 L482 113 Z " />
<glyph glyph-name="five" unicode="5" horiz-adv-x="522" d="M462 235 C462 302 455 374 403 426 C375 454 333 471 280 471 C224 471 180 453 152 422 L152 648 L447 648 L447 712 L87 712 L87 338 L152 338 C166 380 208 408 270 408 C373 408 390 322 390 235 C390 184 388 127 351 90 C330 69 298 57 263 57 C188 57 151 97 142 168 L70 168 C74 117 89 76 120 44 C151 13 201 -7 263 -7 C326 -7 372 13 405 46 C456 97 462 164 462 235 L462 235 Z " />
<glyph glyph-name="six" unicode="6" horiz-adv-x="522" d="M460 205 C460 322 386 407 275 407 C247 407 222 402 200 392 L359 712 L285 712 L110 359 C80 299 65 250 65 199 C65 76 142 -6 263 -6 C384 -6 460 84 460 205 L460 205 Z M388 202 C388 115 338 58 262 58 C186 58 137 115 137 202 C137 290 186 346 262 346 C344 346 388 281 388 202 L388 202 Z " />
<glyph glyph-name="seven" unicode="7" horiz-adv-x="522" d="M471 648 L471 712 L76 712 L76 536 L147 536 L147 648 L395 648 L148 0 L224 0 L471 648 Z " />
<glyph glyph-name="eight" unicode="8" horiz-adv-x="522" d="M471 196 C471 279 425 335 365 369 C421 401 457 453 457 527 C457 638 374 718 261 718 C148 718 65 638 65 527 C65 453 102 401 158 369 C98 335 51 279 51 196 C51 76 143 -6 261 -6 C379 -6 471 76 471 196 L471 196 Z M385 526 C385 451 334 399 261 399 C188 399 137 451 137 526 C137 600 188 654 261 654 C334 654 385 600 385 526 L385 526 Z M399 197 C399 118 339 58 261 58 C183 58 123 118 123 197 C123 276 183 336 261 336 C339 336 399 276 399 197 L399 197 Z " />
<glyph glyph-name="nine" unicode="9" horiz-adv-x="522" d="M457 513 C457 636 380 718 259 718 C138 718 62 628 62 507 C62 390 135 305 246 305 C274 305 300 310 322 320 L162 0 L237 0 L412 353 C442 413 457 462 457 513 L457 513 Z M385 510 C385 422 335 366 259 366 C177 366 134 431 134 510 C134 597 183 654 259 654 C335 654 385 597 385 510 L385 510 Z " />
<glyph glyph-name="colon" unicode="&#x3a;" horiz-adv-x="297" d="M209 301 L209 395 L115 395 L115 301 L209 301 Z M209 0 L209 94 L115 94 L115 0 L209 0 Z " />
<glyph glyph-name="semicolon" unicode="&#x3b;" horiz-adv-x="297" d="M209 301 L209 395 L115 395 L115 301 L209 301 Z M205 -65 L205 88 L117 88 L117 -144 L205 -65 Z " />
<glyph glyph-name="less" unicode="&#x3c;" horiz-adv-x="1027" d="M972 234 L972 304 L183 304 L548 668 L454 668 L55 269 L454 -130 L548 -130 L183 234 L972 234 Z " />
<glyph glyph-name="equal" unicode="&#x3d;" horiz-adv-x="522" d="M470 320 L470 387 L52 387 L52 320 L470 320 Z M470 151 L470 217 L52 217 L52 151 L470 151 Z " />
<glyph glyph-name="greater" unicode="&#x3e;" horiz-adv-x="1027" d="M972 269 L573 668 L479 668 L844 304 L55 304 L55 234 L844 234 L479 -130 L573 -130 L972 269 Z " />
<glyph glyph-name="question" unicode="&#x3f;" horiz-adv-x="497" d="M451 536 C451 643 369 718 264 718 C156 718 76 637 76 535 L148 535 C148 598 193 654 264 654 C331 654 379 603 379 536 C379 502 365 479 346 451 L265 334 C244 304 234 279 234 240 L234 200 L306 200 L306 239 C306 255 312 279 324 297 L406 415 C432 453 451 489 451 536 L451 536 Z M313 0 L313 84 L227 84 L227 0 L313 0 Z " />
<glyph glyph-name="at" unicode="&#x40;" horiz-adv-x="713" d="M641 -1 L641 496 C641 564 623 618 584 657 C546 695 494 713 430 713 L282 713 C217 713 165 695 128 657 C90 618 72 564 72 496 L72 160 C72 71 89 36 150 -9 L199 40 C153 74 142 98 142 161 L142 498 C142 553 152 582 182 612 C211 641 244 652 291 652 L421 652 C468 652 504 640 532 612 C561 582 571 551 571 498 L571 420 C537 462 495 483 437 483 C379 483 328 460 299 421 C268 380 258 326 258 238 C258 147 268 96 302 54 C333 15 382 -7 438 -7 C499 -7 539 13 572 55 L572 0 L641 -1 Z M571 238 C571 145 555 55 450 55 C345 55 329 145 329 238 C329 331 345 421 450 421 C555 421 571 331 571 238 L571 238 Z " />
<glyph glyph-name="A" unicode="A" horiz-adv-x="611" d="M599 0 L338 712 L274 712 L12 0 L93 0 L150 161 L461 161 L518 0 L599 0 Z M439 227 L173 227 L307 603 L439 227 Z " />
<glyph glyph-name="B" unicode="B" horiz-adv-x="668" d="M592 197 C592 282 544 341 476 366 C536 388 581 447 581 522 C581 641 495 712 371 712 L103 712 L103 0 L380 0 C506 0 592 68 592 197 L592 197 Z M505 521 C505 436 444 397 365 397 L179 397 L179 644 L365 644 C444 644 505 606 505 521 L505 521 Z M516 199 C516 119 461 68 373 68 L179 68 L179 329 L373 329 C461 329 516 279 516 199 L516 199 Z " />
<glyph glyph-name="C" unicode="C" horiz-adv-x="637" d="M572 206 L496 206 C477 119 414 62 325 62 C278 62 233 80 202 112 C157 158 152 207 152 356 C152 505 157 554 202 600 C233 632 278 650 325 650 C414 650 475 593 494 506 L572 506 C548 640 453 718 325 718 C255 718 191 692 143 644 C76 577 76 507 76 356 C76 205 76 135 143 68 C191 20 255 -6 325 -6 C452 -6 549 72 572 206 L572 206 Z " />
<glyph glyph-name="D" unicode="D" horiz-adv-x="673" d="M597 364 C597 463 601 572 527 646 C484 689 421 712 347 712 L103 712 L103 0 L347 0 C421 0 484 23 527 66 C601 140 597 265 597 364 L597 364 Z M521 364 C521 277 523 171 474 120 C437 82 389 68 334 68 L179 68 L179 644 L334 644 C389 644 437 630 474 592 C523 541 521 451 521 364 L521 364 Z " />
<glyph glyph-name="E" unicode="E" horiz-adv-x="600" d="M545 0 L545 68 L179 68 L179 325 L491 325 L491 393 L179 393 L179 644 L545 644 L545 712 L103 712 L103 0 L545 0 Z " />
<glyph glyph-name="F" unicode="F" horiz-adv-x="580" d="M545 644 L545 712 L103 712 L103 0 L179 0 L179 314 L491 314 L491 382 L179 382 L179 644 L545 644 Z " />
<glyph glyph-name="G" unicode="G" horiz-adv-x="650" d="M576 260 L576 373 L325 373 L325 306 L500 306 L500 252 C500 197 489 158 460 123 C427 83 377 62 325 62 C278 62 233 80 202 112 C157 158 152 207 152 356 C152 505 157 553 202 599 C233 631 278 650 325 650 C414 650 478 595 498 505 L574 505 C553 630 461 718 325 718 C254 718 191 692 143 644 C76 577 76 507 76 356 C76 205 76 135 143 68 C191 20 255 -6 325 -6 C398 -6 465 22 515 76 C559 123 576 178 576 260 L576 260 Z " />
<glyph glyph-name="H" unicode="H" horiz-adv-x="696" d="M593 0 L593 712 L517 712 L517 393 L179 393 L179 712 L103 712 L103 0 L179 0 L179 325 L517 325 L517 0 L593 0 Z " />
<glyph glyph-name="I" unicode="I" horiz-adv-x="282" d="M179 0 L179 712 L103 712 L103 0 L179 0 Z " />
<glyph glyph-name="J" unicode="J" horiz-adv-x="501" d="M408 216 L408 712 L332 712 L332 226 C332 121 279 62 186 62 C127 62 100 83 74 109 L23 58 C67 14 118 -6 186 -6 C316 -6 408 79 408 216 L408 216 Z " />
<glyph glyph-name="K" unicode="K" horiz-adv-x="650" d="M636 0 L380 437 L604 712 L511 712 L179 303 L179 712 L103 712 L103 0 L179 0 L179 199 L329 379 L546 0 L636 0 Z " />
<glyph glyph-name="L" unicode="L" horiz-adv-x="573" d="M543 0 L543 68 L179 68 L179 712 L103 712 L103 0 L543 0 Z " />
<glyph glyph-name="M" unicode="M" horiz-adv-x="816" d="M713 0 L713 712 L637 712 L411 207 L179 712 L103 712 L103 0 L179 0 L179 541 L377 112 L442 112 L637 541 L637 0 L713 0 Z " />
<glyph glyph-name="N" unicode="N" horiz-adv-x="732" d="M629 0 L629 712 L553 712 L553 143 L175 712 L103 712 L103 0 L179 0 L179 571 L557 0 L629 0 Z " />
<glyph glyph-name="O" unicode="O" horiz-adv-x="650" d="M574 356 C574 507 574 577 507 644 C459 692 396 718 325 718 C254 718 191 692 143 644 C76 577 76 507 76 356 C76 205 76 135 143 68 C191 20 254 -6 325 -6 C396 -6 459 20 507 68 C574 135 574 205 574 356 L574 356 Z M498 356 C498 207 493 159 448 113 C417 81 372 62 325 62 C278 62 233 81 202 113 C157 159 152 207 152 356 C152 505 157 553 202 599 C233 631 278 650 325 650 C372 650 417 631 448 599 C493 553 498 505 498 356 L498 356 Z " />
<glyph glyph-name="P" unicode="P" horiz-adv-x="630" d="M588 503 C588 631 498 712 368 712 L103 712 L103 0 L179 0 L179 293 L368 293 C498 293 588 375 588 503 L588 503 Z M512 503 C512 409 450 361 361 361 L179 361 L179 644 L361 644 C450 644 512 597 512 503 L512 503 Z " />
<glyph glyph-name="Q" unicode="Q" horiz-adv-x="649" d="M603 11 L525 89 C574 150 574 220 574 356 C574 507 574 577 507 644 C459 692 396 718 325 718 C254 718 191 692 143 644 C76 577 76 507 76 356 C76 205 76 135 143 68 C191 20 254 -6 325 -6 C382 -6 435 11 478 44 L557 -35 L603 11 Z M498 356 C498 242 495 187 469 145 L382 232 L336 186 L426 96 C397 74 363 62 325 62 C278 62 233 81 202 113 C157 159 152 207 152 356 C152 505 157 553 202 599 C233 631 278 650 325 650 C372 650 417 631 448 599 C493 553 498 505 498 356 L498 356 Z " />
<glyph glyph-name="R" unicode="R" horiz-adv-x="656" d="M601 0 L432 323 C524 342 587 410 587 514 C587 637 500 712 376 712 L103 712 L103 0 L179 0 L179 316 L350 316 L512 0 L601 0 Z M511 513 C511 426 452 383 369 383 L179 383 L179 644 L369 644 C452 644 511 600 511 513 L511 513 Z " />
<glyph glyph-name="S" unicode="S" horiz-adv-x="588" d="M532 196 C532 255 511 304 472 337 C442 363 409 377 342 387 L264 399 C227 405 190 419 168 438 C146 457 136 485 136 520 C136 599 191 652 286 652 C361 652 408 631 452 591 L501 640 C440 695 380 718 289 718 C148 718 61 638 61 517 C61 460 79 416 115 384 C146 357 190 339 246 330 L329 317 C381 309 399 303 422 283 C445 263 456 231 456 194 C456 111 392 62 288 62 C208 62 153 81 94 140 L42 88 C109 21 179 -6 286 -6 C434 -6 532 71 532 196 L532 196 Z " />
<glyph glyph-name="T" unicode="T" horiz-adv-x="548" d="M518 644 L518 712 L30 712 L30 644 L236 644 L236 0 L312 0 L312 644 L518 644 Z " />
<glyph glyph-name="U" unicode="U" horiz-adv-x="683" d="M590 235 L590 712 L514 712 L514 241 C514 133 445 62 341 62 C237 62 169 133 169 241 L169 712 L93 712 L93 235 C93 93 197 -6 341 -6 C485 -6 590 93 590 235 L590 235 Z " />
<glyph glyph-name="V" unicode="V" horiz-adv-x="546" d="M538 712 L458 712 L273 136 L88 712 L8 712 L242 0 L304 0 L538 712 Z " />
<glyph glyph-name="W" unicode="W" horiz-adv-x="854" d="M838 712 L757 712 L618 138 L461 712 L393 712 L236 138 L97 712 L16 712 L198 0 L269 0 L427 570 L585 0 L656 0 L838 712 Z " />
<glyph glyph-name="X" unicode="X" horiz-adv-x="551" d="M536 0 L316 365 L521 712 L433 712 L275 431 L117 712 L29 712 L233 365 L15 0 L101 0 L275 299 L448 0 L536 0 Z " />
<glyph glyph-name="Y" unicode="Y" horiz-adv-x="514" d="M506 712 L424 712 L258 371 L90 712 L8 712 L220 294 L220 0 L296 0 L296 294 L506 712 Z " />
<glyph glyph-name="Z" unicode="Z" horiz-adv-x="556" d="M499 0 L499 68 L140 68 L499 648 L499 712 L71 712 L71 644 L413 644 L57 72 L57 0 L499 0 Z " />
<glyph glyph-name="bracketleft" unicode="&#x5b;" horiz-adv-x="313" d="M269 -74 L269 -10 L164 -10 L164 722 L269 722 L269 786 L92 786 L92 -74 L269 -74 Z " />
<glyph glyph-name="backslash" unicode="&#x5c;" horiz-adv-x="355" d="M355 -74 L71 783 L0 783 L284 -74 L355 -74 Z " />
<glyph glyph-name="bracketright" unicode="&#x5d;" horiz-adv-x="313" d="M221 -74 L221 786 L44 786 L44 724 L152 724 L152 -12 L44 -12 L44 -74 L221 -74 Z " />
<glyph glyph-name="asciicircum" unicode="&#x5e;" horiz-adv-x="537" d="M465 413 L302 718 L236 718 L72 413 L146 413 L269 641 L391 413 L465 413 Z " />
<glyph glyph-name="underscore" unicode="&#x5f;" horiz-adv-x="537" d="M537 -165 L537 -114 L0 -114 L0 -165 L537 -165 Z " />
<glyph glyph-name="grave" unicode="&#x60;" horiz-adv-x="500" d="M299 594 L211 747 L125 747 L233 594 L299 594 Z " />
<glyph glyph-name="a" unicode="a" horiz-adv-x="526" d="M441 0 L441 334 C441 441 376 498 244 498 C164 498 114 482 70 425 L119 380 C148 421 180 436 243 436 C333 436 369 400 369 328 L369 281 L221 281 C111 281 51 225 51 139 C51 100 64 63 88 39 C119 7 159 -6 227 -6 C293 -6 329 7 369 47 L369 0 L441 0 Z M369 174 C369 133 361 105 344 89 C313 59 276 56 234 56 C156 56 121 83 121 140 C121 197 157 227 231 227 L369 227 L369 174 Z " />
<glyph glyph-name="b" unicode="b" horiz-adv-x="545" d="M481 246 C481 323 471 405 421 455 C395 481 351 498 301 498 C247 498 202 486 162 435 L162 712 L90 712 L90 0 L162 0 L162 59 C202 7 247 -6 301 -6 C351 -6 395 11 421 37 C471 87 481 169 481 246 L481 246 Z M409 246 C409 150 393 58 286 58 C179 58 162 150 162 246 C162 342 179 434 286 434 C393 434 409 342 409 246 L409 246 Z " />
<glyph glyph-name="c" unicode="c" horiz-adv-x="490" d="M443 67 L394 114 C357 73 328 58 281 58 C233 58 193 77 167 114 C144 146 135 184 135 246 C135 308 144 346 167 378 C193 415 233 434 281 434 C328 434 357 420 394 379 L443 425 C392 480 349 498 281 498 C157 498 63 414 63 246 C63 78 157 -6 281 -6 C349 -6 392 12 443 67 L443 67 Z " />
<glyph glyph-name="d" unicode="d" horiz-adv-x="545" d="M455 0 L455 712 L383 712 L383 435 C343 486 298 498 244 498 C194 498 150 481 124 455 C74 405 64 323 64 246 C64 169 74 87 124 37 C150 11 194 -6 244 -6 C298 -6 344 7 384 59 L384 0 L455 0 Z M383 246 C383 150 367 58 260 58 C153 58 136 150 136 246 C136 342 153 434 260 434 C367 434 383 342 383 246 L383 246 Z " />
<glyph glyph-name="e" unicode="e" horiz-adv-x="530" d="M467 227 L467 260 C467 406 392 498 265 498 C140 498 63 405 63 246 C63 72 148 -6 278 -6 C362 -6 408 20 458 70 L409 113 C370 74 337 57 280 57 C186 57 135 119 135 227 L467 227 Z M395 281 L135 281 C137 321 139 336 150 363 C169 408 213 437 265 437 C317 437 361 408 380 363 C391 336 393 321 395 281 L395 281 Z " />
<glyph glyph-name="f" unicode="f" horiz-adv-x="314" d="M283 434 L283 489 L178 489 L178 580 C178 625 198 652 244 652 L283 652 L283 714 L231 714 C147 714 106 655 106 582 L106 489 L43 489 L43 434 L106 434 L106 0 L178 0 L178 434 L283 434 Z " />
<glyph glyph-name="g" unicode="g" horiz-adv-x="543" d="M453 -15 L453 492 L382 492 L382 434 C342 486 298 498 244 498 C194 498 150 481 124 455 C75 406 64 330 64 250 C64 170 75 94 124 45 C150 19 193 1 243 1 C296 1 341 14 381 65 L381 -12 C381 -96 341 -163 246 -163 C189 -163 164 -146 128 -114 L81 -160 C133 -207 174 -226 248 -226 C377 -226 453 -137 453 -15 L453 -15 Z M381 250 C381 158 366 66 259 66 C152 66 136 158 136 250 C136 342 152 434 259 434 C366 434 381 342 381 250 L381 250 Z " />
<glyph glyph-name="h" unicode="h" horiz-adv-x="562" d="M477 0 L477 316 C477 427 411 498 300 498 C245 498 198 479 162 438 L162 712 L90 712 L90 0 L162 0 L162 304 C162 389 211 434 285 434 C359 434 405 390 405 304 L405 0 L477 0 Z " />
<glyph glyph-name="i" unicode="i" horiz-adv-x="253" d="M167 632 L167 713 L86 713 L86 632 L167 632 Z M162 0 L162 492 L90 492 L90 0 L162 0 Z " />
<glyph glyph-name="j" unicode="j" horiz-adv-x="253" d="M167 632 L167 713 L86 713 L86 632 L167 632 Z M162 -89 L162 489 L90 489 L90 -86 C90 -134 74 -158 24 -158 L-15 -158 L-15 -221 L37 -221 C123 -221 162 -164 162 -89 L162 -89 Z " />
<glyph glyph-name="k" unicode="k" horiz-adv-x="536" d="M503 0 L307 304 L474 492 L384 492 L162 236 L162 712 L90 712 L90 0 L162 0 L162 142 L258 252 L414 0 L503 0 Z " />
<glyph glyph-name="l" unicode="l" horiz-adv-x="297" d="M265 0 L265 62 L226 62 C176 62 160 86 160 134 L160 712 L88 712 L88 131 C88 56 127 0 213 0 L265 0 Z " />
<glyph glyph-name="m" unicode="m" horiz-adv-x="879" d="M794 0 L794 315 C794 372 776 418 741 452 C711 481 667 498 614 498 C545 498 490 470 452 416 C422 470 369 498 301 498 C246 498 197 478 162 438 L162 492 L90 492 L90 0 L162 0 L162 303 C162 389 211 434 285 434 C359 434 406 390 406 303 L406 0 L478 0 L478 311 C478 389 529 434 601 434 C675 434 722 390 722 303 L722 0 L794 0 Z " />
<glyph glyph-name="n" unicode="n" horiz-adv-x="562" d="M477 0 L477 315 C477 372 461 418 426 452 C396 482 353 498 300 498 C245 498 197 478 162 438 L162 492 L90 492 L90 0 L162 0 L162 303 C162 389 210 434 284 434 C358 434 405 390 405 303 L405 0 L477 0 Z " />
<glyph glyph-name="o" unicode="o" horiz-adv-x="530" d="M466 246 C466 322 456 391 406 442 C372 476 325 498 265 498 C205 498 158 476 124 442 C74 391 64 322 64 246 C64 170 74 101 124 50 C158 16 205 -6 265 -6 C325 -6 372 16 406 50 C456 101 466 170 466 246 L466 246 Z M394 246 C394 191 391 130 355 94 C332 71 300 58 265 58 C230 58 199 71 176 94 C140 130 136 191 136 246 C136 301 140 362 176 398 C199 421 230 434 265 434 C300 434 332 421 355 398 C391 362 394 301 394 246 L394 246 Z " />
<glyph glyph-name="p" unicode="p" horiz-adv-x="545" d="M481 246 C481 323 471 405 421 455 C395 481 351 498 301 498 C247 498 202 486 162 434 L162 492 L90 492 L90 -220 L162 -220 L162 58 C202 7 247 -6 301 -6 C351 -6 395 11 421 37 C471 87 481 169 481 246 L481 246 Z M409 246 C409 150 393 58 286 58 C179 58 162 150 162 246 C162 342 179 434 286 434 C393 434 409 342 409 246 L409 246 Z " />
<glyph glyph-name="q" unicode="q" horiz-adv-x="545" d="M455 -220 L455 492 L384 492 L384 434 C344 486 298 498 244 498 C194 498 150 481 124 455 C74 405 64 323 64 246 C64 169 74 87 124 37 C150 11 194 -6 244 -6 C298 -6 343 7 383 58 L383 -220 L455 -220 Z M383 246 C383 150 367 58 260 58 C153 58 136 150 136 246 C136 342 153 434 260 434 C367 434 383 342 383 246 L383 246 Z " />
<glyph glyph-name="r" unicode="r" horiz-adv-x="421" d="M418 452 C383 487 347 498 300 498 C243 498 189 473 162 432 L162 492 L90 492 L90 0 L162 0 L162 302 C162 377 208 434 280 434 C318 434 338 425 365 398 L418 452 Z " />
<glyph glyph-name="s" unicode="s" horiz-adv-x="496" d="M445 144 C445 236 386 269 300 277 L221 284 C159 289 135 314 135 356 C135 406 173 437 245 437 C296 437 341 425 376 398 L423 445 C379 481 316 498 246 498 C141 498 65 444 65 354 C65 273 116 230 212 222 L293 215 C350 210 375 186 375 143 C375 85 325 56 244 56 C183 56 130 72 91 113 L43 65 C97 13 162 -6 245 -6 C364 -6 445 49 445 144 L445 144 Z " />
<glyph glyph-name="t" unicode="t" horiz-adv-x="332" d="M279 0 L279 62 L241 62 C195 62 174 89 174 134 L174 434 L279 434 L279 489 L174 489 L174 643 L102 643 L102 489 L40 489 L40 434 L102 434 L102 132 C102 59 144 0 228 0 L279 0 Z " />
<glyph glyph-name="u" unicode="u" horiz-adv-x="562" d="M472 0 L472 492 L400 492 L400 189 C400 103 351 58 277 58 C203 58 157 102 157 189 L157 492 L85 492 L85 178 C85 121 100 74 135 40 C165 10 209 -6 262 -6 C317 -6 366 15 401 55 L401 0 L472 0 Z " />
<glyph glyph-name="v" unicode="v" horiz-adv-x="447" d="M436 492 L358 492 L223 97 L89 492 L11 492 L191 0 L255 0 L436 492 Z " />
<glyph glyph-name="w" unicode="w" horiz-adv-x="724" d="M713 492 L635 492 L523 97 L393 492 L331 492 L202 97 L89 492 L11 492 L167 0 L234 0 L362 382 L491 0 L558 0 L713 492 Z " />
<glyph glyph-name="x" unicode="x" horiz-adv-x="478" d="M445 0 L278 251 L438 492 L351 492 L240 310 L127 492 L40 492 L200 251 L33 0 L120 0 L240 191 L358 0 L445 0 Z " />
<glyph glyph-name="y" unicode="y" horiz-adv-x="447" d="M436 492 L358 492 L224 97 L89 492 L11 492 L188 10 L153 -86 C137 -131 122 -147 72 -147 L50 -147 L50 -211 L81 -211 C116 -211 151 -202 177 -177 C191 -164 202 -146 212 -119 L436 492 Z " />
<glyph glyph-name="z" unicode="z" horiz-adv-x="459" d="M407 0 L407 64 L132 64 L407 431 L407 492 L65 492 L65 428 L324 428 L50 62 L50 0 L407 0 Z " />
<glyph glyph-name="braceleft" unicode="&#x7b;" horiz-adv-x="354" d="M305 -74 L305 -10 L282 -10 C247 -10 233 -7 223 3 C212 14 209 32 209 68 L209 256 C209 313 184 338 146 356 C184 374 209 399 209 456 L209 644 C209 680 212 698 223 709 C233 719 247 722 282 722 L305 722 L305 786 L268 786 C218 786 188 777 167 756 C145 734 137 709 137 657 L137 466 C137 438 131 418 119 406 C109 396 93 388 74 388 L48 388 L48 324 L74 324 C93 324 109 316 119 306 C131 294 137 274 137 246 L137 55 C137 3 145 -22 167 -44 C188 -65 218 -74 268 -74 L305 -74 Z " />
<glyph glyph-name="bar" unicode="&#x7c;" horiz-adv-x="326" d="M199 -74 L199 786 L127 786 L127 -74 L199 -74 Z " />
<glyph glyph-name="braceright" unicode="&#x7d;" horiz-adv-x="354" d="M305 324 L305 388 L280 388 C261 388 245 396 235 406 C223 418 217 438 217 466 L217 657 C217 709 209 734 187 756 C166 777 136 786 86 786 L48 786 L48 722 L72 722 C107 722 120 719 130 709 C141 698 145 680 145 644 L145 456 C145 399 170 374 208 356 C170 338 145 313 145 256 L145 68 C145 32 141 14 130 3 C120 -7 107 -10 72 -10 L48 -10 L48 -74 L86 -74 C136 -74 166 -65 187 -44 C209 -22 217 3 217 55 L217 246 C217 274 223 294 235 306 C245 316 261 324 280 324 L305 324 Z " />
<glyph glyph-name="asciitilde" unicode="&#x7e;" horiz-adv-x="539" d="M490 278 L445 323 C406 284 389 278 361 278 C334 278 311 289 283 302 C245 319 213 333 178 333 C133 333 105 321 49 265 L93 220 C132 259 149 265 177 265 C204 265 227 254 255 241 C293 224 326 210 361 210 C406 210 434 222 490 278 L490 278 Z " />
<glyph glyph-name="nbspace" unicode="&#xa0;" horiz-adv-x="249" d="" />
<glyph glyph-name="exclamdown" unicode="&#xa1;" horiz-adv-x="316" d="M185 408 L185 492 L99 492 L99 408 L185 408 Z M184 -220 L173 292 L111 292 L101 -220 L184 -220 Z " />
<glyph glyph-name="cent" unicode="&#xa2;" horiz-adv-x="498" d="M448 189 L399 235 C366 198 339 183 299 180 L299 552 C339 549 366 534 399 497 L448 543 C402 593 362 613 303 617 L303 712 L244 712 L244 615 C134 599 63 510 63 366 C63 222 134 133 244 117 L244 0 L303 0 L303 115 C362 119 402 139 448 189 L448 189 Z M248 182 C215 188 188 206 168 234 C145 266 135 304 135 366 C135 428 145 466 168 498 C188 526 215 544 248 550 L248 182 Z " />
<glyph glyph-name="sterling" unicode="&#xa3;" horiz-adv-x="548" d="M496 0 L496 68 L187 68 L187 330 L333 330 L333 384 L187 384 L187 486 C187 591 240 650 333 650 C392 650 418 629 444 603 L496 654 C452 698 401 718 333 718 C203 718 110 633 110 496 L110 384 L47 384 L47 330 L110 330 L110 0 L496 0 Z " />
<glyph glyph-name="currency" unicode="&#xa4;" horiz-adv-x="660" d="M582 65 L508 139 C535 175 552 221 552 271 C552 321 535 367 508 403 L582 476 L536 522 L461 449 C425 476 380 492 330 492 C280 492 234 476 198 449 L124 522 L78 476 L152 403 C125 367 108 321 108 271 C108 221 125 175 152 139 L78 65 L124 19 L198 93 C234 66 280 49 330 49 C380 49 425 66 461 93 L536 19 L582 65 Z M485 271 C485 185 416 115 330 115 C244 115 174 185 174 271 C174 357 244 426 330 426 C416 426 485 357 485 271 L485 271 Z " />
<glyph glyph-name="yen" unicode="&#xa5;" horiz-adv-x="514" d="M506 712 L425 712 L258 371 L90 712 L8 712 L165 401 L65 401 L65 347 L193 347 L219 294 L219 242 L65 242 L65 187 L219 187 L219 0 L296 0 L296 187 L449 187 L449 242 L296 242 L296 294 L322 347 L449 347 L449 401 L349 401 L506 712 Z " />
<glyph glyph-name="brokenbar" unicode="&#xa6;" horiz-adv-x="335" d="M199 436 L199 786 L127 786 L127 436 L199 436 Z M199 -74 L199 276 L127 276 L127 -74 L199 -74 Z " />
<glyph glyph-name="section" unicode="&#xa7;" horiz-adv-x="557" d="M470 254 C470 344 420 412 333 437 L255 459 C205 473 171 502 171 555 C171 620 212 654 279 654 C343 654 384 627 389 561 L461 561 C457 658 383 718 279 718 C174 718 99 651 99 554 C99 481 135 442 192 416 C138 390 87 334 87 252 C87 161 136 94 224 69 L302 47 C358 31 390 -9 390 -55 C390 -122 347 -160 279 -160 C212 -160 169 -127 163 -65 L90 -65 C96 -172 180 -226 279 -226 C382 -226 463 -158 463 -54 C463 19 423 69 366 90 C419 116 470 172 470 254 L470 254 Z M397 253 C397 210 385 183 365 161 C344 138 314 125 279 125 C244 125 214 138 193 161 C174 182 160 210 160 253 C160 294 170 320 193 345 C214 368 244 381 279 381 C314 381 342 368 365 345 C390 320 397 291 397 253 L397 253 Z " />
<glyph glyph-name="dieresis" unicode="&#xa8;" horiz-adv-x="500" d="M392 602 L392 691 L320 691 L320 602 L392 602 Z M180 602 L180 691 L108 691 L108 602 L180 602 Z " />
<glyph glyph-name="copyright" unicode="&#xa9;" horiz-adv-x="881" d="M802 356 C802 556 640 718 440 718 C240 718 78 556 78 356 C78 156 240 -6 440 -6 C640 -6 802 156 802 356 L802 356 Z M744 356 C744 187 608 48 440 48 C272 48 137 187 137 356 C137 525 272 664 440 664 C608 664 744 525 744 356 L744 356 Z M576 205 L540 241 C507 212 482 203 445 203 C354 203 323 272 323 356 C323 440 354 510 445 510 C482 510 507 500 540 471 L576 507 C535 543 501 560 445 560 C329 560 267 473 267 356 C267 239 329 153 445 153 C501 153 537 170 576 205 L576 205 Z " />
<glyph glyph-name="ordfeminine" unicode="&#xaa;" horiz-adv-x="449" d="M365 319 L365 584 C365 669 315 716 210 716 C147 716 106 702 70 656 L111 619 C135 652 160 663 209 663 C280 663 306 635 306 579 L306 543 L191 543 C104 543 56 498 56 429 C56 398 67 370 86 350 C111 325 142 314 196 314 C247 314 276 325 307 355 L307 319 L365 319 Z M306 458 C306 425 300 403 287 391 C263 368 234 366 201 366 C141 366 115 387 115 431 C115 475 142 498 199 498 L306 498 L306 458 Z " />
<glyph glyph-name="guillemotleft" unicode="&#xab;" horiz-adv-x="554" d="M476 58 L476 147 L355 268 L476 388 L476 478 L266 268 L476 58 Z M250 58 L250 147 L130 268 L250 388 L250 478 L40 268 L250 58 Z " />
<glyph glyph-name="logicalnot" unicode="&#xac;" horiz-adv-x="522" d="M471 103 L471 307 L51 307 L51 240 L404 240 L404 103 L471 103 Z " />
<glyph glyph-name="registered" unicode="&#xae;" horiz-adv-x="881" d="M802 356 C802 556 640 718 440 718 C240 718 78 556 78 356 C78 156 240 -6 440 -6 C640 -6 802 156 802 356 L802 356 Z M745 356 C745 186 608 47 440 47 C272 47 136 186 136 356 C136 526 272 665 440 665 C608 665 745 526 745 356 L745 356 Z M592 158 L497 327 C546 342 582 378 582 436 C582 503 526 555 457 555 L322 555 L322 158 L377 158 L377 320 L437 320 L528 158 L592 158 Z M526 436 C526 396 495 367 451 367 L377 367 L377 506 L451 506 C495 506 526 476 526 436 L526 436 Z " />
<glyph glyph-name="macron" unicode="&#xaf;" horiz-adv-x="500" d="M401 614 L401 671 L99 671 L99 614 L401 614 Z " />
<glyph glyph-name="degree" unicode="&#xb0;" horiz-adv-x="463" d="M396 557 C396 648 323 721 232 721 C141 721 67 648 67 557 C67 466 141 393 232 393 C323 393 396 466 396 557 L396 557 Z M335 557 C335 497 291 451 232 451 C173 451 128 497 128 557 C128 617 172 663 231 663 C290 663 335 617 335 557 L335 557 Z " />
<glyph glyph-name="plusminus" unicode="&#xb1;" horiz-adv-x="522" d="M470 289 L470 356 L295 356 L295 531 L228 531 L228 356 L52 356 L52 289 L228 289 L228 112 L295 112 L295 289 L470 289 Z M470 0 L470 67 L52 67 L52 0 L470 0 Z " />
<glyph glyph-name="twosuperior" unicode="&#xb2;" horiz-adv-x="342" d="M294 285 L294 337 L117 337 L255 505 C281 537 294 560 294 597 C294 670 243 716 171 716 C99 716 48 669 48 597 L106 597 C106 646 137 664 171 664 C212 664 236 637 236 597 C236 575 229 559 213 539 L48 337 L48 285 L294 285 Z " />
<glyph glyph-name="threesuperior" unicode="&#xb3;" horiz-adv-x="356" d="M308 405 C308 458 285 489 247 505 C281 521 301 551 301 597 C301 668 250 716 178 716 C111 716 58 673 54 601 L111 601 C114 640 139 664 178 664 C214 664 244 641 244 596 C244 555 222 528 176 528 L167 528 L167 478 L176 478 C226 478 251 450 251 405 C251 359 220 332 179 332 C142 332 108 352 106 399 L48 399 C51 317 111 280 179 280 C250 280 308 323 308 405 L308 405 Z " />
<glyph glyph-name="acute" unicode="&#xb4;" horiz-adv-x="500" d="M375 747 L289 747 L201 594 L267 594 L375 747 Z " />
<glyph glyph-name="mu" unicode="&#xb5;" horiz-adv-x="561" d="M471 0 L471 492 L399 492 L399 189 C399 103 350 58 276 58 C202 58 155 102 155 189 L155 492 L83 492 L83 -220 L155 -220 L155 31 C181 7 217 -6 261 -6 C316 -6 364 15 399 55 L399 0 L471 0 Z " />
<glyph glyph-name="paragraph" unicode="&#xb6;" horiz-adv-x="603" d="M500 -220 L500 712 L259 712 C122 712 42 625 42 518 C42 420 119 326 239 326 L239 -220 L311 -220 L311 644 L428 644 L428 -220 L500 -220 Z " />
<glyph glyph-name="periodcentered" unicode="&#xb7;" horiz-adv-x="270" d="M182 223 L182 317 L88 317 L88 223 L182 223 Z " />
<glyph glyph-name="cedilla" unicode="&#xb8;" horiz-adv-x="500" d="M313 -67 L246 -67 L175 -216 L254 -216 L313 -67 Z " />
<glyph glyph-name="onesuperior" unicode="&#xb9;" horiz-adv-x="261" d="M183 285 L183 712 L126 712 L43 641 L43 575 L126 648 L126 285 L183 285 Z " />
<glyph glyph-name="ordmasculine" unicode="&#xba;" horiz-adv-x="455" d="M387 515 C387 575 379 630 339 671 C312 698 275 716 227 716 C179 716 142 698 115 671 C75 630 67 575 67 515 C67 454 75 400 115 359 C142 332 179 315 227 315 C275 315 312 332 339 359 C379 400 387 454 387 515 L387 515 Z M328 515 C328 472 325 425 297 397 C279 379 254 368 227 368 C200 368 175 379 157 397 C129 425 127 472 127 515 C127 558 129 606 157 634 C175 652 200 662 227 662 C254 662 279 652 297 634 C325 606 328 558 328 515 L328 515 Z " />
<glyph glyph-name="guillemotright" unicode="&#xbb;" horiz-adv-x="554" d="M514 268 L304 478 L304 388 L424 268 L304 147 L304 58 L514 268 Z M288 268 L78 478 L78 388 L199 268 L78 147 L78 58 L288 268 Z " />
<glyph glyph-name="onequarter" unicode="&#xbc;" horiz-adv-x="777" d="M737 64 L737 117 L690 117 L690 222 L634 222 L634 117 L525 117 L675 427 L613 427 L462 117 L462 64 L634 64 L634 0 L690 0 L690 64 L737 64 Z M566 712 L506 712 L173 0 L233 0 L566 712 Z M183 285 L183 712 L126 712 L43 641 L43 575 L126 648 L126 285 L183 285 Z " />
<glyph glyph-name="onehalf" unicode="&#xbd;" horiz-adv-x="790" d="M742 0 L742 52 L566 52 L703 220 C729 252 742 275 742 312 C742 385 691 431 619 431 C547 431 496 384 496 312 L554 312 C554 361 585 379 619 379 C660 379 684 352 684 312 C684 290 677 274 661 254 L496 52 L496 0 L742 0 Z M554 712 L494 712 L161 0 L221 0 L554 712 Z M183 285 L183 712 L126 712 L43 641 L43 575 L126 648 L126 285 L183 285 Z " />
<glyph glyph-name="threequarters" unicode="&#xbe;" horiz-adv-x="822" d="M782 64 L782 117 L735 117 L735 222 L679 222 L679 117 L569 117 L720 427 L658 427 L507 117 L507 64 L679 64 L679 0 L735 0 L735 64 L782 64 Z M619 712 L559 712 L225 0 L285 0 L619 712 Z M308 405 C308 458 285 489 247 505 C281 521 301 551 301 597 C301 668 250 716 178 716 C111 716 58 673 54 601 L111 601 C114 640 139 664 178 664 C214 664 244 641 244 596 C244 555 222 528 176 528 L167 528 L167 478 L176 478 C226 478 251 450 251 405 C251 359 220 332 179 332 C142 332 108 352 106 399 L48 399 C51 317 111 280 179 280 C250 280 308 323 308 405 L308 405 Z " />
<glyph glyph-name="questiondown" unicode="&#xbf;" horiz-adv-x="497" d="M270 408 L270 492 L185 492 L185 408 L270 408 Z M421 -43 L349 -43 C349 -106 305 -161 234 -161 C167 -161 118 -110 118 -43 C118 -9 132 14 151 42 L232 158 C253 188 264 213 264 252 L264 293 L192 293 L192 253 C192 237 186 213 174 195 L92 77 C66 39 46 4 46 -43 C46 -150 129 -226 234 -226 C342 -226 421 -145 421 -43 L421 -43 Z " />
<glyph glyph-name="Agrave" unicode="&#xc0;" horiz-adv-x="611" d="M599 0 L338 712 L274 712 L12 0 L93 0 L150 161 L461 161 L518 0 L599 0 Z M439 227 L173 227 L307 603 L439 227 Z M351 781 L263 934 L177 934 L285 781 L351 781 Z " />
<glyph glyph-name="Aacute" unicode="&#xc1;" horiz-adv-x="611" d="M599 0 L338 712 L274 712 L12 0 L93 0 L150 161 L461 161 L518 0 L599 0 Z M439 227 L173 227 L307 603 L439 227 Z M427 934 L341 934 L253 781 L319 781 L427 934 Z " />
<glyph glyph-name="Acircumflex" unicode="&#xc2;" horiz-adv-x="611" d="M599 0 L338 712 L274 712 L12 0 L93 0 L150 161 L461 161 L518 0 L599 0 Z M439 227 L173 227 L307 603 L439 227 Z M461 781 L336 934 L268 934 L143 781 L212 781 L302 885 L392 781 L461 781 Z " />
<glyph glyph-name="Atilde" unicode="&#xc3;" horiz-adv-x="611" d="M599 0 L338 712 L274 712 L12 0 L93 0 L150 161 L461 161 L518 0 L599 0 Z M439 227 L173 227 L307 603 L439 227 Z M459 846 L422 882 C393 853 378 850 363 850 C343 850 328 857 307 870 C282 885 265 894 236 894 C211 894 186 888 141 843 L178 807 C208 837 221 839 237 839 C257 839 274 829 293 818 C317 804 336 795 364 795 C387 795 414 801 459 846 L459 846 Z " />
<glyph glyph-name="Adieresis" unicode="&#xc4;" horiz-adv-x="611" d="M599 0 L338 712 L274 712 L12 0 L93 0 L150 161 L461 161 L518 0 L599 0 Z M439 227 L173 227 L307 603 L439 227 Z M444 789 L444 878 L372 878 L372 789 L444 789 Z M232 789 L232 878 L160 878 L160 789 L232 789 Z " />
<glyph glyph-name="Aring" unicode="&#xc5;" horiz-adv-x="611" d="M599 0 L338 712 L274 712 L12 0 L93 0 L150 161 L461 161 L518 0 L599 0 Z M439 227 L173 227 L307 603 L439 227 Z M420 867 C420 933 367 985 302 985 C237 985 184 932 184 867 C184 802 237 748 302 748 C367 748 420 802 420 867 L420 867 Z M371 867 C371 829 340 798 302 798 C264 798 233 829 233 867 C233 905 264 935 302 935 C340 935 371 905 371 867 L371 867 Z " />
<glyph glyph-name="AE" unicode="&#xc6;" horiz-adv-x="922" d="M867 0 L867 68 L501 68 L501 323 L813 323 L813 391 L501 391 L501 644 L867 644 L867 712 L384 712 L8 0 L91 0 L179 169 L426 169 L426 0 L867 0 Z M426 235 L212 235 L426 644 L426 235 Z " />
<glyph glyph-name="Ccedilla" unicode="&#xc7;" horiz-adv-x="637" d="M572 206 L496 206 C477 119 414 62 325 62 C278 62 233 80 202 112 C157 158 152 207 152 356 C152 505 157 554 202 600 C233 632 278 650 325 650 C414 650 475 593 494 506 L572 506 C548 640 453 718 325 718 C255 718 191 692 143 644 C76 577 76 507 76 356 C76 205 76 135 143 68 C191 20 255 -6 325 -6 C452 -6 549 72 572 206 L572 206 Z M370 -67 L303 -67 L232 -216 L311 -216 L370 -67 Z " />
<glyph glyph-name="Egrave" unicode="&#xc8;" horiz-adv-x="600" d="M545 0 L545 68 L179 68 L179 325 L491 325 L491 393 L179 393 L179 644 L545 644 L545 712 L103 712 L103 0 L545 0 Z M362 781 L274 934 L188 934 L296 781 L362 781 Z " />
<glyph glyph-name="Eacute" unicode="&#xc9;" horiz-adv-x="600" d="M545 0 L545 68 L179 68 L179 325 L491 325 L491 393 L179 393 L179 644 L545 644 L545 712 L103 712 L103 0 L545 0 Z M438 934 L352 934 L264 781 L330 781 L438 934 Z " />
<glyph glyph-name="Ecircumflex" unicode="&#xca;" horiz-adv-x="600" d="M545 0 L545 68 L179 68 L179 325 L491 325 L491 393 L179 393 L179 644 L545 644 L545 712 L103 712 L103 0 L545 0 Z M472 781 L347 934 L279 934 L154 781 L223 781 L313 885 L403 781 L472 781 Z " />
<glyph glyph-name="Edieresis" unicode="&#xcb;" horiz-adv-x="600" d="M545 0 L545 68 L179 68 L179 325 L491 325 L491 393 L179 393 L179 644 L545 644 L545 712 L103 712 L103 0 L545 0 Z M455 789 L455 878 L383 878 L383 789 L455 789 Z M243 789 L243 878 L171 878 L171 789 L243 789 Z " />
<glyph glyph-name="Igrave" unicode="&#xcc;" horiz-adv-x="282" d="M179 0 L179 712 L103 712 L103 0 L179 0 Z M205 781 L117 934 L31 934 L139 781 L205 781 Z " />
<glyph glyph-name="Iacute" unicode="&#xcd;" horiz-adv-x="282" d="M179 0 L179 712 L103 712 L103 0 L179 0 Z M253 934 L167 934 L79 781 L145 781 L253 934 Z " />
<glyph glyph-name="Icircumflex" unicode="&#xce;" horiz-adv-x="282" d="M179 0 L179 712 L103 712 L103 0 L179 0 Z M298 781 L173 934 L105 934 L-20 781 L49 781 L139 885 L229 781 L298 781 Z " />
<glyph glyph-name="Idieresis" unicode="&#xcf;" horiz-adv-x="282" d="M179 0 L179 712 L103 712 L103 0 L179 0 Z M282 789 L282 878 L210 878 L210 789 L282 789 Z M70 789 L70 878 L-2 878 L-2 789 L70 789 Z " />
<glyph glyph-name="Eth" unicode="&#xd0;" horiz-adv-x="687" d="M611 356 C611 510 608 542 567 605 C521 675 451 712 362 712 L117 712 L117 389 L39 389 L39 330 L117 330 L117 0 L356 0 C454 0 524 45 567 105 C605 159 611 194 611 356 L611 356 Z M535 352 C535 214 533 185 504 141 C471 92 417 67 348 67 L194 67 L194 330 L355 330 L355 389 L194 389 L194 645 L348 645 C415 645 461 625 499 573 C533 526 535 486 535 352 L535 352 Z " />
<glyph glyph-name="Ntilde" unicode="&#xd1;" horiz-adv-x="732" d="M629 0 L629 712 L553 712 L553 143 L175 712 L103 712 L103 0 L179 0 L179 571 L557 0 L629 0 Z M523 846 L486 882 C457 853 442 850 427 850 C407 850 392 857 371 870 C346 885 329 894 300 894 C275 894 250 888 205 843 L242 807 C272 837 285 839 301 839 C321 839 338 829 357 818 C381 804 400 795 428 795 C451 795 478 801 523 846 L523 846 Z " />
<glyph glyph-name="Ograve" unicode="&#xd2;" horiz-adv-x="650" d="M574 356 C574 507 574 577 507 644 C459 692 396 718 325 718 C254 718 191 692 143 644 C76 577 76 507 76 356 C76 205 76 135 143 68 C191 20 254 -6 325 -6 C396 -6 459 20 507 68 C574 135 574 205 574 356 L574 356 Z M498 356 C498 207 493 159 448 113 C417 81 372 62 325 62 C278 62 233 81 202 113 C157 159 152 207 152 356 C152 505 157 553 202 599 C233 631 278 650 325 650 C372 650 417 631 448 599 C493 553 498 505 498 356 L498 356 Z M374 781 L286 934 L200 934 L308 781 L374 781 Z " />
<glyph glyph-name="Oacute" unicode="&#xd3;" horiz-adv-x="650" d="M574 356 C574 507 574 577 507 644 C459 692 396 718 325 718 C254 718 191 692 143 644 C76 577 76 507 76 356 C76 205 76 135 143 68 C191 20 254 -6 325 -6 C396 -6 459 20 507 68 C574 135 574 205 574 356 L574 356 Z M498 356 C498 207 493 159 448 113 C417 81 372 62 325 62 C278 62 233 81 202 113 C157 159 152 207 152 356 C152 505 157 553 202 599 C233 631 278 650 325 650 C372 650 417 631 448 599 C493 553 498 505 498 356 L498 356 Z M450 934 L364 934 L276 781 L342 781 L450 934 Z " />
<glyph glyph-name="Ocircumflex" unicode="&#xd4;" horiz-adv-x="650" d="M574 356 C574 507 574 577 507 644 C459 692 396 718 325 718 C254 718 191 692 143 644 C76 577 76 507 76 356 C76 205 76 135 143 68 C191 20 254 -6 325 -6 C396 -6 459 20 507 68 C574 135 574 205 574 356 L574 356 Z M498 356 C498 207 493 159 448 113 C417 81 372 62 325 62 C278 62 233 81 202 113 C157 159 152 207 152 356 C152 505 157 553 202 599 C233 631 278 650 325 650 C372 650 417 631 448 599 C493 553 498 505 498 356 L498 356 Z M484 781 L359 934 L291 934 L166 781 L235 781 L325 885 L415 781 L484 781 Z " />
<glyph glyph-name="Otilde" unicode="&#xd5;" horiz-adv-x="650" d="M574 356 C574 507 574 577 507 644 C459 692 396 718 325 718 C254 718 191 692 143 644 C76 577 76 507 76 356 C76 205 76 135 143 68 C191 20 254 -6 325 -6 C396 -6 459 20 507 68 C574 135 574 205 574 356 L574 356 Z M498 356 C498 207 493 159 448 113 C417 81 372 62 325 62 C278 62 233 81 202 113 C157 159 152 207 152 356 C152 505 157 553 202 599 C233 631 278 650 325 650 C372 650 417 631 448 599 C493 553 498 505 498 356 L498 356 Z M482 846 L445 882 C416 853 401 850 386 850 C366 850 351 857 330 870 C305 885 288 894 259 894 C234 894 209 888 164 843 L201 807 C231 837 244 839 260 839 C280 839 297 829 316 818 C340 804 359 795 387 795 C410 795 437 801 482 846 L482 846 Z " />
<glyph glyph-name="Odieresis" unicode="&#xd6;" horiz-adv-x="650" d="M574 356 C574 507 574 577 507 644 C459 692 396 718 325 718 C254 718 191 692 143 644 C76 577 76 507 76 356 C76 205 76 135 143 68 C191 20 254 -6 325 -6 C396 -6 459 20 507 68 C574 135 574 205 574 356 L574 356 Z M498 356 C498 207 493 159 448 113 C417 81 372 62 325 62 C278 62 233 81 202 113 C157 159 152 207 152 356 C152 505 157 553 202 599 C233 631 278 650 325 650 C372 650 417 631 448 599 C493 553 498 505 498 356 L498 356 Z M467 789 L467 878 L395 878 L395 789 L467 789 Z M255 789 L255 878 L183 878 L183 789 L255 789 Z " />
<glyph glyph-name="multiply" unicode="&#xd7;" horiz-adv-x="522" d="M457 119 L305 270 L457 421 L412 466 L261 314 L110 466 L65 421 L216 270 L65 119 L110 74 L261 225 L412 74 L457 119 Z " />
<glyph glyph-name="Oslash" unicode="&#xd8;" horiz-adv-x="652" d="M574 356 C574 507 574 577 507 644 C504 647 502 650 499 652 L549 756 L484 756 L450 687 C413 708 371 718 325 718 C254 718 191 692 143 644 C76 577 76 507 76 356 C76 205 76 135 143 68 C146 65 148 63 151 60 L101 -44 L166 -44 L199 26 C236 5 279 -6 325 -6 C396 -6 459 20 507 68 C574 135 574 205 574 356 L574 356 Z M497 356 C497 207 493 159 448 113 C417 81 372 62 325 62 C290 62 257 73 229 91 L463 581 C494 539 497 486 497 356 L497 356 Z M421 621 L187 131 C156 173 152 226 152 356 C152 505 157 553 202 599 C233 631 278 650 325 650 C360 650 393 639 421 621 L421 621 Z " />
<glyph glyph-name="Ugrave" unicode="&#xd9;" horiz-adv-x="682" d="M590 235 L590 712 L514 712 L514 241 C514 133 445 62 341 62 C237 62 169 133 169 241 L169 712 L93 712 L93 235 C93 93 197 -6 341 -6 C485 -6 590 93 590 235 L590 235 Z M390 781 L302 934 L216 934 L324 781 L390 781 Z " />
<glyph glyph-name="Uacute" unicode="&#xda;" horiz-adv-x="682" d="M590 235 L590 712 L514 712 L514 241 C514 133 445 62 341 62 C237 62 169 133 169 241 L169 712 L93 712 L93 235 C93 93 197 -6 341 -6 C485 -6 590 93 590 235 L590 235 Z M466 934 L380 934 L292 781 L358 781 L466 934 Z " />
<glyph glyph-name="Ucircumflex" unicode="&#xdb;" horiz-adv-x="682" d="M590 235 L590 712 L514 712 L514 241 C514 133 445 62 341 62 C237 62 169 133 169 241 L169 712 L93 712 L93 235 C93 93 197 -6 341 -6 C485 -6 590 93 590 235 L590 235 Z M500 781 L375 934 L307 934 L182 781 L251 781 L341 885 L431 781 L500 781 Z " />
<glyph glyph-name="Udieresis" unicode="&#xdc;" horiz-adv-x="682" d="M590 235 L590 712 L514 712 L514 241 C514 133 445 62 341 62 C237 62 169 133 169 241 L169 712 L93 712 L93 235 C93 93 197 -6 341 -6 C485 -6 590 93 590 235 L590 235 Z M483 789 L483 878 L411 878 L411 789 L483 789 Z M271 789 L271 878 L199 878 L199 789 L271 789 Z " />
<glyph glyph-name="Yacute" unicode="&#xdd;" horiz-adv-x="515" d="M506 712 L424 712 L258 371 L90 712 L8 712 L220 294 L220 0 L296 0 L296 294 L506 712 Z M382 934 L296 934 L208 781 L274 781 L382 934 Z " />
<glyph glyph-name="Thorn" unicode="&#xde;" horiz-adv-x="642" d="M588 359 C588 487 498 569 368 569 L179 569 L179 712 L103 712 L103 0 L179 0 L179 150 L368 150 C498 150 588 231 588 359 L588 359 Z M512 359 C512 265 450 218 361 218 L179 218 L179 500 L361 500 C450 500 512 453 512 359 L512 359 Z " />
<glyph glyph-name="germandbls" unicode="&#xdf;" horiz-adv-x="556" d="M484 141 L484 314 C484 378 469 408 421 434 C461 460 484 498 484 553 C484 668 397 719 291 719 C168 719 90 649 90 524 L90 0 L163 0 L163 521 C163 601 198 656 287 656 C330 656 360 647 381 627 C400 609 412 581 412 552 C412 496 376 461 324 461 L288 461 L288 401 L332 401 C357 401 377 394 391 380 C406 365 412 347 412 318 L412 149 C412 118 403 95 387 82 C370 68 357 62 328 62 L288 62 L288 0 L342 0 C388 0 418 11 445 36 C470 59 484 96 484 141 L484 141 Z " />
<glyph glyph-name="agrave" unicode="&#xe0;" horiz-adv-x="526" d="M441 0 L441 334 C441 441 376 498 244 498 C164 498 114 482 70 425 L119 380 C148 421 180 436 243 436 C333 436 369 400 369 328 L369 281 L221 281 C111 281 51 225 51 139 C51 100 64 63 88 39 C119 7 159 -6 227 -6 C293 -6 329 7 369 47 L369 0 L441 0 Z M369 174 C369 133 361 105 344 89 C313 59 276 56 234 56 C156 56 121 83 121 140 C121 197 157 227 231 227 L369 227 L369 174 Z M301 594 L213 747 L127 747 L235 594 L301 594 Z " />
<glyph glyph-name="aacute" unicode="&#xe1;" horiz-adv-x="526" d="M441 0 L441 334 C441 441 376 498 244 498 C164 498 114 482 70 425 L119 380 C148 421 180 436 243 436 C333 436 369 400 369 328 L369 281 L221 281 C111 281 51 225 51 139 C51 100 64 63 88 39 C119 7 159 -6 227 -6 C293 -6 329 7 369 47 L369 0 L441 0 Z M369 174 C369 133 361 105 344 89 C313 59 276 56 234 56 C156 56 121 83 121 140 C121 197 157 227 231 227 L369 227 L369 174 Z M377 747 L291 747 L203 594 L269 594 L377 747 Z " />
<glyph glyph-name="acircumflex" unicode="&#xe2;" horiz-adv-x="526" d="M441 0 L441 334 C441 441 376 498 244 498 C164 498 114 482 70 425 L119 380 C148 421 180 436 243 436 C333 436 369 400 369 328 L369 281 L221 281 C111 281 51 225 51 139 C51 100 64 63 88 39 C119 7 159 -6 227 -6 C293 -6 329 7 369 47 L369 0 L441 0 Z M369 174 C369 133 361 105 344 89 C313 59 276 56 234 56 C156 56 121 83 121 140 C121 197 157 227 231 227 L369 227 L369 174 Z M411 594 L286 747 L218 747 L93 594 L162 594 L252 698 L342 594 L411 594 Z " />
<glyph glyph-name="atilde" unicode="&#xe3;" horiz-adv-x="526" d="M441 0 L441 334 C441 441 376 498 244 498 C164 498 114 482 70 425 L119 380 C148 421 180 436 243 436 C333 436 369 400 369 328 L369 281 L221 281 C111 281 51 225 51 139 C51 100 64 63 88 39 C119 7 159 -6 227 -6 C293 -6 329 7 369 47 L369 0 L441 0 Z M369 174 C369 133 361 105 344 89 C313 59 276 56 234 56 C156 56 121 83 121 140 C121 197 157 227 231 227 L369 227 L369 174 Z M409 659 L372 695 C343 666 328 663 313 663 C293 663 278 670 257 683 C232 698 215 707 186 707 C161 707 136 701 91 656 L128 620 C158 650 171 652 187 652 C207 652 224 642 243 631 C267 617 286 608 314 608 C337 608 364 614 409 659 L409 659 Z " />
<glyph glyph-name="adieresis" unicode="&#xe4;" horiz-adv-x="526" d="M441 0 L441 334 C441 441 376 498 244 498 C164 498 114 482 70 425 L119 380 C148 421 180 436 243 436 C333 436 369 400 369 328 L369 281 L221 281 C111 281 51 225 51 139 C51 100 64 63 88 39 C119 7 159 -6 227 -6 C293 -6 329 7 369 47 L369 0 L441 0 Z M369 174 C369 133 361 105 344 89 C313 59 276 56 234 56 C156 56 121 83 121 140 C121 197 157 227 231 227 L369 227 L369 174 Z M394 602 L394 691 L322 691 L322 602 L394 602 Z M182 602 L182 691 L110 691 L110 602 L182 602 Z " />
<glyph glyph-name="aring" unicode="&#xe5;" horiz-adv-x="526" d="M441 0 L441 334 C441 441 376 498 244 498 C164 498 114 482 70 425 L119 380 C148 421 180 436 243 436 C333 436 369 400 369 328 L369 281 L221 281 C111 281 51 225 51 139 C51 100 64 63 88 39 C119 7 159 -6 227 -6 C293 -6 329 7 369 47 L369 0 L441 0 Z M369 174 C369 133 361 105 344 89 C313 59 276 56 234 56 C156 56 121 83 121 140 C121 197 157 227 231 227 L369 227 L369 174 Z M370 687 C370 753 317 805 252 805 C187 805 134 752 134 687 C134 622 187 568 252 568 C317 568 370 622 370 687 L370 687 Z M321 687 C321 649 290 618 252 618 C214 618 183 649 183 687 C183 725 214 755 252 755 C290 755 321 725 321 687 L321 687 Z " />
<glyph glyph-name="ae" unicode="&#xe6;" horiz-adv-x="835" d="M773 227 L773 260 C773 406 698 498 571 498 C504 498 451 471 417 421 C390 472 333 498 244 498 C164 498 114 482 70 425 L119 380 C148 421 180 436 243 436 C333 436 369 400 369 328 L369 281 L221 281 C111 281 51 225 51 139 C51 100 64 63 88 39 C119 7 159 -6 227 -6 C312 -6 362 15 407 79 C443 21 505 -6 582 -6 C666 -6 714 20 764 70 L714 113 C675 74 643 57 586 57 C492 57 440 119 440 227 L773 227 Z M701 281 L440 281 C442 321 445 336 456 363 C475 408 519 437 571 437 C623 437 667 408 686 363 C697 336 699 321 701 281 L701 281 Z M369 174 C369 133 361 105 344 89 C313 59 276 56 234 56 C156 56 121 83 121 140 C121 197 157 227 231 227 L369 227 L369 174 Z " />
<glyph glyph-name="ccedilla" unicode="&#xe7;" horiz-adv-x="494" d="M443 67 L394 114 C357 73 328 58 281 58 C233 58 193 77 167 114 C144 146 135 184 135 246 C135 308 144 346 167 378 C193 415 233 434 281 434 C328 434 357 420 394 379 L443 425 C392 480 349 498 281 498 C157 498 63 414 63 246 C63 78 157 -6 281 -6 C349 -6 392 12 443 67 L443 67 Z M313 -67 L246 -67 L175 -216 L254 -216 L313 -67 Z " />
<glyph glyph-name="egrave" unicode="&#xe8;" horiz-adv-x="530" d="M467 227 L467 260 C467 406 392 498 265 498 C140 498 63 405 63 246 C63 72 148 -6 278 -6 C362 -6 408 20 458 70 L409 113 C370 74 337 57 280 57 C186 57 135 119 135 227 L467 227 Z M395 281 L135 281 C137 321 139 336 150 363 C169 408 213 437 265 437 C317 437 361 408 380 363 C391 336 393 321 395 281 L395 281 Z M317 594 L229 747 L143 747 L251 594 L317 594 Z " />
<glyph glyph-name="eacute" unicode="&#xe9;" horiz-adv-x="530" d="M467 227 L467 260 C467 406 392 498 265 498 C140 498 63 405 63 246 C63 72 148 -6 278 -6 C362 -6 408 20 458 70 L409 113 C370 74 337 57 280 57 C186 57 135 119 135 227 L467 227 Z M395 281 L135 281 C137 321 139 336 150 363 C169 408 213 437 265 437 C317 437 361 408 380 363 C391 336 393 321 395 281 L395 281 Z M393 747 L307 747 L219 594 L285 594 L393 747 Z " />
<glyph glyph-name="ecircumflex" unicode="&#xea;" horiz-adv-x="530" d="M467 227 L467 260 C467 406 392 498 265 498 C140 498 63 405 63 246 C63 72 148 -6 278 -6 C362 -6 408 20 458 70 L409 113 C370 74 337 57 280 57 C186 57 135 119 135 227 L467 227 Z M395 281 L135 281 C137 321 139 336 150 363 C169 408 213 437 265 437 C317 437 361 408 380 363 C391 336 393 321 395 281 L395 281 Z M427 594 L302 747 L234 747 L109 594 L178 594 L268 698 L358 594 L427 594 Z " />
<glyph glyph-name="edieresis" unicode="&#xeb;" horiz-adv-x="530" d="M467 227 L467 260 C467 406 392 498 265 498 C140 498 63 405 63 246 C63 72 148 -6 278 -6 C362 -6 408 20 458 70 L409 113 C370 74 337 57 280 57 C186 57 135 119 135 227 L467 227 Z M395 281 L135 281 C137 321 139 336 150 363 C169 408 213 437 265 437 C317 437 361 408 380 363 C391 336 393 321 395 281 L395 281 Z M410 602 L410 691 L338 691 L338 602 L410 602 Z M198 602 L198 691 L126 691 L126 602 L198 602 Z " />
<glyph glyph-name="igrave" unicode="&#xec;" horiz-adv-x="253" d="M162 0 L162 492 L90 492 L90 0 L162 0 Z M192 594 L104 747 L18 747 L126 594 L192 594 Z " />
<glyph glyph-name="iacute" unicode="&#xed;" horiz-adv-x="253" d="M162 0 L162 492 L90 492 L90 0 L162 0 Z M240 747 L154 747 L66 594 L132 594 L240 747 Z " />
<glyph glyph-name="icircumflex" unicode="&#xee;" horiz-adv-x="253" d="M162 0 L162 492 L90 492 L90 0 L162 0 Z M285 594 L160 747 L92 747 L-33 594 L36 594 L126 698 L216 594 L285 594 Z " />
<glyph glyph-name="idieresis" unicode="&#xef;" horiz-adv-x="253" d="M162 0 L162 492 L90 492 L90 0 L162 0 Z M266 602 L266 691 L194 691 L194 602 L266 602 Z M54 602 L54 691 L-18 691 L-18 602 L54 602 Z " />
<glyph glyph-name="eth" unicode="&#xf0;" horiz-adv-x="530" d="M465 244 C465 331 455 376 402 469 L339 580 L393 580 L393 632 L311 632 L264 714 L189 714 L236 632 L148 632 L148 580 L264 580 L322 481 C300 491 272 492 247 491 C197 488 155 470 125 439 C75 389 66 319 66 244 C66 169 75 99 125 49 C158 15 205 -6 265 -6 C325 -6 372 15 405 49 C455 99 465 169 465 244 L465 244 Z M393 244 C393 189 390 130 354 94 C331 71 300 58 265 58 C230 58 200 71 177 94 C141 130 138 189 138 244 C138 299 141 359 177 395 C200 418 230 431 265 431 C300 431 331 418 354 395 C390 359 393 299 393 244 L393 244 Z " />
<glyph glyph-name="ntilde" unicode="&#xf1;" horiz-adv-x="562" d="M477 0 L477 315 C477 372 461 418 426 452 C396 482 353 498 300 498 C245 498 197 478 162 438 L162 492 L90 492 L90 0 L162 0 L162 303 C162 389 210 434 284 434 C358 434 405 390 405 303 L405 0 L477 0 Z M442 659 L405 695 C376 666 361 663 346 663 C326 663 311 670 290 683 C265 698 248 707 219 707 C194 707 169 701 124 656 L161 620 C191 650 204 652 220 652 C240 652 257 642 276 631 C300 617 319 608 347 608 C370 608 397 614 442 659 L442 659 Z " />
<glyph glyph-name="ograve" unicode="&#xf2;" horiz-adv-x="530" d="M466 246 C466 322 456 391 406 442 C372 476 325 498 265 498 C205 498 158 476 124 442 C74 391 64 322 64 246 C64 170 74 101 124 50 C158 16 205 -6 265 -6 C325 -6 372 16 406 50 C456 101 466 170 466 246 L466 246 Z M394 246 C394 191 391 130 355 94 C332 71 300 58 265 58 C230 58 199 71 176 94 C140 130 136 191 136 246 C136 301 140 362 176 398 C199 421 230 434 265 434 C300 434 332 421 355 398 C391 362 394 301 394 246 L394 246 Z M304 594 L216 747 L130 747 L238 594 L304 594 Z " />
<glyph glyph-name="oacute" unicode="&#xf3;" horiz-adv-x="530" d="M466 246 C466 322 456 391 406 442 C372 476 325 498 265 498 C205 498 158 476 124 442 C74 391 64 322 64 246 C64 170 74 101 124 50 C158 16 205 -6 265 -6 C325 -6 372 16 406 50 C456 101 466 170 466 246 L466 246 Z M394 246 C394 191 391 130 355 94 C332 71 300 58 265 58 C230 58 199 71 176 94 C140 130 136 191 136 246 C136 301 140 362 176 398 C199 421 230 434 265 434 C300 434 332 421 355 398 C391 362 394 301 394 246 L394 246 Z M390 747 L304 747 L216 594 L282 594 L390 747 Z " />
<glyph glyph-name="ocircumflex" unicode="&#xf4;" horiz-adv-x="530" d="M466 246 C466 322 456 391 406 442 C372 476 325 498 265 498 C205 498 158 476 124 442 C74 391 64 322 64 246 C64 170 74 101 124 50 C158 16 205 -6 265 -6 C325 -6 372 16 406 50 C456 101 466 170 466 246 L466 246 Z M394 246 C394 191 391 130 355 94 C332 71 300 58 265 58 C230 58 199 71 176 94 C140 130 136 191 136 246 C136 301 140 362 176 398 C199 421 230 434 265 434 C300 434 332 421 355 398 C391 362 394 301 394 246 L394 246 Z M424 594 L299 747 L231 747 L106 594 L175 594 L265 698 L355 594 L424 594 Z " />
<glyph glyph-name="otilde" unicode="&#xf5;" horiz-adv-x="530" d="M466 246 C466 322 456 391 406 442 C372 476 325 498 265 498 C205 498 158 476 124 442 C74 391 64 322 64 246 C64 170 74 101 124 50 C158 16 205 -6 265 -6 C325 -6 372 16 406 50 C456 101 466 170 466 246 L466 246 Z M394 246 C394 191 391 130 355 94 C332 71 300 58 265 58 C230 58 199 71 176 94 C140 130 136 191 136 246 C136 301 140 362 176 398 C199 421 230 434 265 434 C300 434 332 421 355 398 C391 362 394 301 394 246 L394 246 Z M422 659 L385 695 C356 666 341 663 326 663 C306 663 291 670 270 683 C245 698 228 707 199 707 C174 707 149 701 104 656 L141 620 C171 650 184 652 200 652 C220 652 237 642 256 631 C280 617 299 608 327 608 C350 608 377 614 422 659 L422 659 Z " />
<glyph glyph-name="odieresis" unicode="&#xf6;" horiz-adv-x="530" d="M466 246 C466 322 456 391 406 442 C372 476 325 498 265 498 C205 498 158 476 124 442 C74 391 64 322 64 246 C64 170 74 101 124 50 C158 16 205 -6 265 -6 C325 -6 372 16 406 50 C456 101 466 170 466 246 L466 246 Z M394 246 C394 191 391 130 355 94 C332 71 300 58 265 58 C230 58 199 71 176 94 C140 130 136 191 136 246 C136 301 140 362 176 398 C199 421 230 434 265 434 C300 434 332 421 355 398 C391 362 394 301 394 246 L394 246 Z M407 602 L407 691 L335 691 L335 602 L407 602 Z M195 602 L195 691 L123 691 L123 602 L195 602 Z " />
<glyph glyph-name="divide" unicode="&#xf7;" horiz-adv-x="522" d="M304 404 L304 490 L218 490 L218 404 L304 404 Z M471 236 L471 303 L51 303 L51 236 L471 236 Z M304 49 L304 135 L218 135 L218 49 L304 49 Z " />
<glyph glyph-name="oslash" unicode="&#xf8;" horiz-adv-x="530" d="M466 246 C466 321 456 390 408 440 L465 536 L409 536 L370 471 C341 488 306 498 265 498 C205 498 158 476 124 442 C74 391 64 322 64 246 C64 171 74 102 122 52 L65 -44 L122 -44 L160 21 C189 4 224 -6 265 -6 C325 -6 372 16 406 50 C456 101 466 170 466 246 L466 246 Z M394 246 C394 191 391 130 355 94 C332 71 300 58 265 58 C238 58 213 66 193 80 L370 379 C392 343 394 293 394 246 L394 246 Z M337 413 L161 113 C139 149 136 199 136 246 C136 301 140 362 176 398 C199 421 230 434 265 434 C292 434 317 427 337 413 L337 413 Z " />
<glyph glyph-name="ugrave" unicode="&#xf9;" horiz-adv-x="563" d="M472 0 L472 492 L400 492 L400 189 C400 103 351 58 277 58 C203 58 157 102 157 189 L157 492 L85 492 L85 178 C85 121 100 74 135 40 C165 10 209 -6 262 -6 C317 -6 366 15 401 55 L401 0 L472 0 Z M327 594 L239 747 L153 747 L261 594 L327 594 Z " />
<glyph glyph-name="uacute" unicode="&#xfa;" horiz-adv-x="563" d="M472 0 L472 492 L400 492 L400 189 C400 103 351 58 277 58 C203 58 157 102 157 189 L157 492 L85 492 L85 178 C85 121 100 74 135 40 C165 10 209 -6 262 -6 C317 -6 366 15 401 55 L401 0 L472 0 Z M403 747 L317 747 L229 594 L295 594 L403 747 Z " />
<glyph glyph-name="ucircumflex" unicode="&#xfb;" horiz-adv-x="563" d="M472 0 L472 492 L400 492 L400 189 C400 103 351 58 277 58 C203 58 157 102 157 189 L157 492 L85 492 L85 178 C85 121 100 74 135 40 C165 10 209 -6 262 -6 C317 -6 366 15 401 55 L401 0 L472 0 Z M437 594 L312 747 L244 747 L119 594 L188 594 L278 698 L368 594 L437 594 Z " />
<glyph glyph-name="udieresis" unicode="&#xfc;" horiz-adv-x="563" d="M472 0 L472 492 L400 492 L400 189 C400 103 351 58 277 58 C203 58 157 102 157 189 L157 492 L85 492 L85 178 C85 121 100 74 135 40 C165 10 209 -6 262 -6 C317 -6 366 15 401 55 L401 0 L472 0 Z M420 602 L420 691 L348 691 L348 602 L420 602 Z M208 602 L208 691 L136 691 L136 602 L208 602 Z " />
<glyph glyph-name="yacute" unicode="&#xfd;" horiz-adv-x="446" d="M436 492 L358 492 L224 97 L89 492 L11 492 L188 10 L153 -86 C137 -131 122 -147 72 -147 L50 -147 L50 -211 L81 -211 C116 -211 151 -202 177 -177 C191 -164 202 -146 212 -119 L436 492 Z M348 747 L262 747 L174 594 L240 594 L348 747 Z " />
<glyph glyph-name="thorn" unicode="&#xfe;" horiz-adv-x="546" d="M481 246 C481 323 471 405 421 455 C395 481 351 498 301 498 C247 498 202 486 162 435 L162 712 L90 712 L90 -220 L162 -220 L162 58 C202 7 247 -6 301 -6 C351 -6 395 11 421 37 C471 87 481 169 481 246 L481 246 Z M409 246 C409 150 393 58 286 58 C179 58 162 150 162 246 C162 342 179 434 286 434 C393 434 409 342 409 246 L409 246 Z " />
<glyph glyph-name="ydieresis" unicode="&#xff;" horiz-adv-x="446" d="M436 492 L358 492 L224 97 L89 492 L11 492 L188 10 L153 -86 C137 -131 122 -147 72 -147 L50 -147 L50 -211 L81 -211 C116 -211 151 -202 177 -177 C191 -164 202 -146 212 -119 L436 492 Z M365 602 L365 691 L293 691 L293 602 L365 602 Z M153 602 L153 691 L81 691 L81 602 L153 602 Z " />
<glyph glyph-name="dotlessi" unicode="&#x131;" horiz-adv-x="253" d="M162 0 L162 492 L90 492 L90 0 L162 0 Z " />
<glyph glyph-name="Lslash" unicode="&#x141;" horiz-adv-x="582" d="M552 0 L552 68 L189 68 L189 338 L343 436 L343 502 L189 404 L189 712 L112 712 L112 356 L39 310 L39 243 L112 289 L112 0 L552 0 Z " />
<glyph glyph-name="lslash" unicode="&#x142;" horiz-adv-x="315" d="M278 0 L278 62 L238 62 C188 62 172 86 172 134 L172 386 L253 436 L253 498 L172 448 L172 712 L100 712 L100 404 L37 365 L37 303 L100 342 L100 131 C100 56 140 0 226 0 L278 0 Z " />
<glyph glyph-name="OE" unicode="&#x152;" horiz-adv-x="989" d="M933 0 L933 67 L573 67 C573 146 574 248 574 327 L878 327 L878 391 L574 391 C574 468 573 567 573 645 L931 645 L931 712 L497 712 L497 638 C453 692 394 718 324 718 C253 718 191 692 143 644 C77 578 76 507 76 356 C76 205 77 134 143 68 C191 20 253 -6 324 -6 C389 -6 453 20 497 74 L497 0 L933 0 Z M497 356 C497 207 493 159 448 113 C417 81 372 62 325 62 C278 62 233 81 202 113 C157 159 152 207 152 356 C152 505 157 553 202 599 C233 631 278 650 325 650 C372 650 417 631 448 599 C493 553 497 505 497 356 L497 356 Z " />
<glyph glyph-name="oe" unicode="&#x153;" horiz-adv-x="861" d="M798 227 L798 260 C798 406 723 498 596 498 C522 498 466 465 433 403 C402 463 339 498 265 498 C205 498 158 476 124 442 C74 391 64 322 64 246 C64 170 74 101 124 50 C158 16 205 -6 265 -6 C339 -6 401 29 432 89 C467 26 528 -6 609 -6 C693 -6 739 20 789 70 L740 113 C701 74 668 57 611 57 C517 57 466 119 466 227 L798 227 Z M727 281 L466 281 C468 321 470 336 481 363 C500 408 544 437 596 437 C648 437 692 408 711 363 C722 336 725 321 727 281 L727 281 Z M394 246 C394 191 391 130 355 94 C332 71 300 58 265 58 C230 58 199 71 176 94 C140 130 136 191 136 246 C136 301 140 362 176 398 C199 421 230 434 265 434 C300 434 332 421 355 398 C391 362 394 301 394 246 L394 246 Z " />
<glyph glyph-name="Scaron" unicode="&#x160;" horiz-adv-x="588" d="M532 196 C532 255 511 304 472 337 C442 363 409 377 342 387 L264 399 C227 405 190 419 168 438 C146 457 136 485 136 520 C136 599 191 652 286 652 C361 652 408 631 452 591 L501 640 C440 695 380 718 289 718 C148 718 61 638 61 517 C61 460 79 416 115 384 C146 357 190 339 246 330 L329 317 C381 309 399 303 422 283 C445 263 456 231 456 194 C456 111 392 62 288 62 C208 62 153 81 94 140 L42 88 C109 21 179 -6 286 -6 C434 -6 532 71 532 196 L532 196 Z M448 934 L379 934 L289 829 L199 934 L130 934 L255 781 L323 781 L448 934 Z " />
<glyph glyph-name="scaron" unicode="&#x161;" horiz-adv-x="496" d="M445 144 C445 236 386 269 300 277 L221 284 C159 289 135 314 135 356 C135 406 173 437 245 437 C296 437 341 425 376 398 L423 445 C379 481 316 498 246 498 C141 498 65 444 65 354 C65 273 116 230 212 222 L293 215 C350 210 375 186 375 143 C375 85 325 56 244 56 C183 56 130 72 91 113 L43 65 C97 13 162 -6 245 -6 C364 -6 445 49 445 144 L445 144 Z M405 747 L336 747 L246 642 L156 747 L87 747 L212 594 L280 594 L405 747 Z " />
<glyph glyph-name="Ydieresis" unicode="&#x178;" horiz-adv-x="515" d="M506 712 L424 712 L258 371 L90 712 L8 712 L220 294 L220 0 L296 0 L296 294 L506 712 Z M399 789 L399 878 L327 878 L327 789 L399 789 Z M187 789 L187 878 L115 878 L115 789 L187 789 Z " />
<glyph glyph-name="Zcaron" unicode="&#x17d;" horiz-adv-x="556" d="M499 0 L499 68 L140 68 L499 648 L499 712 L71 712 L71 644 L413 644 L57 72 L57 0 L499 0 Z M443 934 L374 934 L284 829 L194 934 L125 934 L250 781 L318 781 L443 934 Z " />
<glyph glyph-name="zcaron" unicode="&#x17e;" horiz-adv-x="459" d="M407 0 L407 64 L132 64 L407 431 L407 492 L65 492 L65 428 L324 428 L50 62 L50 0 L407 0 Z M395 747 L326 747 L236 642 L146 747 L77 747 L202 594 L270 594 L395 747 Z " />
<glyph glyph-name="florin" unicode="&#x192;" horiz-adv-x="403" d="M373 652 L373 714 L321 714 C237 714 185 655 172 582 L138 384 L30 384 L30 330 L128 330 L31 -220 L103 -220 L200 330 L315 330 L315 384 L210 384 L244 580 C252 625 277 652 323 652 L373 652 Z " />
<glyph glyph-name="circumflex" unicode="&#x2c6;" horiz-adv-x="500" d="M409 594 L284 747 L216 747 L91 594 L160 594 L250 698 L340 594 L409 594 Z " />
<glyph glyph-name="caron" unicode="&#x2c7;" horiz-adv-x="500" d="M409 747 L340 747 L250 642 L160 747 L91 747 L216 594 L284 594 L409 747 Z " />
<glyph glyph-name="breve" unicode="&#x2d8;" horiz-adv-x="500" d="M415 727 L360 727 C353 675 313 645 252 645 C191 645 150 675 143 727 L85 727 C93 636 150 588 252 588 C354 588 407 636 415 727 L415 727 Z " />
<glyph glyph-name="dotaccent" unicode="&#x2d9;" horiz-adv-x="500" d="M290 634 L290 708 L210 708 L210 634 L290 634 Z " />
<glyph glyph-name="ring" unicode="&#x2da;" horiz-adv-x="500" d="M368 687 C368 753 315 805 250 805 C185 805 132 752 132 687 C132 622 185 568 250 568 C315 568 368 622 368 687 L368 687 Z M319 687 C319 649 288 618 250 618 C212 618 181 649 181 687 C181 725 212 755 250 755 C288 755 319 725 319 687 L319 687 Z " />
<glyph glyph-name="ogonek" unicode="&#x2db;" horiz-adv-x="500" d="M323 -216 L252 -67 L186 -67 L245 -216 L323 -216 Z " />
<glyph glyph-name="tilde" unicode="&#x2dc;" horiz-adv-x="500" d="M407 659 L370 695 C341 666 326 663 311 663 C291 663 276 670 255 683 C230 698 213 707 184 707 C159 707 134 701 89 656 L126 620 C156 650 169 652 185 652 C205 652 222 642 241 631 C265 617 284 608 312 608 C335 608 362 614 407 659 L407 659 Z " />
<glyph glyph-name="hungarumlaut" unicode="&#x2dd;" horiz-adv-x="500" d="M447 747 L362 747 L273 594 L338 594 L447 747 Z M284 747 L199 747 L110 594 L176 594 L284 747 Z " />
<glyph glyph-name="pi" unicode="&#x3c0;" horiz-adv-x="591" d="M490 0 L490 492 L101 492 L101 0 L171 0 L171 427 L421 427 L421 0 L490 0 Z " />
<glyph glyph-name="endash" unicode="&#x2013;" horiz-adv-x="522" d="M470 236 L470 303 L52 303 L52 236 L470 236 Z " />
<glyph glyph-name="emdash" unicode="&#x2014;" horiz-adv-x="914" d="M838 236 L838 304 L76 304 L76 236 L838 236 Z " />
<glyph glyph-name="quoteleft" unicode="&#x2018;" horiz-adv-x="263" d="M175 628 L175 791 L88 712 L88 628 L175 628 Z " />
<glyph glyph-name="quoteright" unicode="&#x2019;" horiz-adv-x="263" d="M175 628 L175 712 L88 712 L88 549 L175 628 Z " />
<glyph glyph-name="quotesinglbase" unicode="&#x201a;" horiz-adv-x="263" d="M175 0 L175 84 L88 84 L88 -79 L175 0 Z " />
<glyph glyph-name="quotedblleft" unicode="&#x201c;" horiz-adv-x="434" d="M346 628 L346 791 L258 712 L258 628 L346 628 Z M175 628 L175 791 L88 712 L88 628 L175 628 Z " />
<glyph glyph-name="quotedblright" unicode="&#x201d;" horiz-adv-x="434" d="M346 628 L346 712 L258 712 L258 549 L346 628 Z M175 628 L175 712 L88 712 L88 549 L175 628 Z " />
<glyph glyph-name="quotedblbase" unicode="&#x201e;" horiz-adv-x="434" d="M346 0 L346 84 L258 84 L258 -79 L346 0 Z M175 0 L175 84 L88 84 L88 -79 L175 0 Z " />
<glyph glyph-name="dagger" unicode="&#x2020;" horiz-adv-x="605" d="M531 445 L531 509 L337 509 L337 712 L265 712 L265 509 L74 509 L74 445 L265 445 L265 0 L337 0 L337 445 L531 445 Z " />
<glyph glyph-name="daggerdbl" unicode="&#x2021;" horiz-adv-x="605" d="M531 -16 L531 48 L337 48 L337 445 L531 445 L531 509 L337 509 L337 712 L265 712 L265 509 L74 509 L74 445 L265 445 L265 48 L74 48 L74 -16 L265 -16 L265 -220 L337 -220 L337 -16 L531 -16 Z " />
<glyph glyph-name="bullet" unicode="&#x2022;" horiz-adv-x="532" d="M429 334 C429 424 356 497 266 497 C176 497 103 424 103 334 C103 244 176 171 266 171 C356 171 429 244 429 334 L429 334 Z " />
<glyph glyph-name="ellipsis" unicode="&#x2026;" horiz-adv-x="757" d="M669 0 L669 92 L577 92 L577 0 L669 0 Z M424 0 L424 92 L332 92 L332 0 L424 0 Z M180 0 L180 92 L88 92 L88 0 L180 0 Z " />
<glyph glyph-name="perthousand" unicode="&#x2030;" horiz-adv-x="1179" d="M1115 128 L1115 233 C1115 315 1057 368 980 368 C902 368 845 315 845 233 L845 128 C845 46 902 -7 980 -7 C1057 -7 1115 46 1115 128 L1115 128 Z M769 128 L769 233 C769 315 711 368 634 368 C556 368 499 315 499 233 L499 128 C499 46 556 -7 634 -7 C711 -7 769 46 769 128 L769 128 Z M614 712 L554 712 L220 0 L280 0 L614 712 Z M335 479 L335 584 C335 666 277 719 200 719 C122 719 65 666 65 584 L65 479 C65 398 122 345 200 345 C277 345 335 398 335 479 L335 479 Z M1058 130 C1058 77 1034 43 980 43 C925 43 902 76 902 130 L902 231 C902 285 925 318 980 318 C1034 318 1058 284 1058 231 L1058 130 Z M712 130 C712 77 688 43 634 43 C579 43 556 76 556 130 L556 231 C556 285 579 318 634 318 C688 318 712 284 712 231 L712 130 Z M278 481 C278 428 254 395 200 395 C146 395 122 427 122 481 L122 582 C122 636 145 669 200 669 C254 669 278 635 278 582 L278 481 Z " />
<glyph glyph-name="guilsinglleft" unicode="&#x2039;" horiz-adv-x="328" d="M250 58 L250 147 L130 268 L250 388 L250 478 L40 268 L250 58 Z " />
<glyph glyph-name="guilsinglright" unicode="&#x203a;" horiz-adv-x="328" d="M288 268 L78 478 L78 388 L199 268 L78 147 L78 58 L288 268 Z " />
<glyph glyph-name="fraction" unicode="&#x2044;" horiz-adv-x="185" d="M289 712 L229 712 L-104 0 L-44 0 L289 712 Z " />
<glyph glyph-name="trademark" unicode="&#x2122;" horiz-adv-x="839" d="M781 285 L781 712 L724 712 L594 453 L464 712 L406 712 L406 285 L464 285 L464 593 L566 391 L622 391 L724 593 L724 285 L781 285 Z M331 659 L331 712 L36 712 L36 659 L154 659 L154 285 L212 285 L212 659 L331 659 Z " />
<glyph glyph-name="Omega" unicode="&#x2126;" horiz-adv-x="650" d="M574 0 L574 67 L491 67 C518 89 535 110 547 134 C576 190 574 274 574 356 C574 507 574 577 507 644 C459 692 396 718 325 718 C254 718 191 692 143 644 C76 577 76 507 76 356 C76 274 74 190 103 134 C115 110 131 89 158 67 L76 67 L76 0 L271 0 L271 64 C231 83 202 103 179 140 C156 177 152 243 152 354 C152 503 158 554 202 599 C234 631 278 650 325 650 C372 650 416 631 448 599 C492 554 497 503 497 354 C497 243 494 177 471 140 C448 103 419 83 379 64 L379 0 L574 0 Z " />
<glyph glyph-name="partialdiff" unicode="&#x2202;" horiz-adv-x="544" d="M453 244 L453 502 C453 630 382 718 248 718 C174 718 134 699 82 652 L128 606 C164 638 189 656 246 656 C342 656 381 586 381 507 L381 437 C343 484 301 495 253 495 C195 495 150 470 123 442 C75 393 66 325 66 244 C66 169 75 99 123 49 C155 15 202 -6 260 -6 C318 -6 364 15 396 49 C444 99 453 169 453 244 L453 244 Z M381 244 C381 189 378 130 344 94 C322 71 293 58 260 58 C227 58 197 71 175 94 C141 130 138 189 138 244 C138 299 141 359 175 395 C197 418 227 431 260 431 C293 431 322 418 344 395 C378 359 381 299 381 244 L381 244 Z " />
<glyph glyph-name="Delta" unicode="&#x2206;" horiz-adv-x="603" d="M594 0 L333 712 L270 712 L8 0 L594 0 Z M495 66 L108 66 L302 603 L495 66 Z " />
<glyph glyph-name="product" unicode="&#x220f;" horiz-adv-x="696" d="M593 -220 L593 760 L103 760 L103 -220 L179 -220 L179 692 L517 692 L517 -220 L593 -220 Z " />
<glyph glyph-name="summation" unicode="&#x2211;" horiz-adv-x="551" d="M500 -220 L500 -152 L144 -152 L326 248 L326 317 L146 692 L499 692 L499 760 L58 760 L58 696 L259 283 L57 -155 L57 -220 L500 -220 Z " />
<glyph glyph-name="minus" unicode="&#x2212;" horiz-adv-x="522" d="M470 236 L470 303 L52 303 L52 236 L470 236 Z " />
<glyph glyph-name="radical" unicode="&#x221a;" horiz-adv-x="562" d="M532 644 L532 712 L386 712 L202 136 L87 492 L8 492 L171 0 L232 0 L443 644 L532 644 Z " />
<glyph glyph-name="infinity" unicode="&#x221e;" horiz-adv-x="808" d="M740 267 C740 357 678 427 582 427 C512 427 463 393 404 321 C345 393 293 427 227 427 C131 427 67 357 67 267 C67 177 131 107 227 107 C295 107 345 140 404 212 C463 140 512 108 582 108 C678 108 740 177 740 267 L740 267 Z M671 266 C671 210 633 173 579 173 C530 173 495 210 449 266 C495 322 530 359 579 359 C633 359 671 322 671 266 L671 266 Z M358 266 C312 210 278 173 229 173 C175 173 136 210 136 266 C136 322 175 360 229 360 C278 360 312 322 358 266 L358 266 Z " />
<glyph glyph-name="integral" unicode="&#x222b;" horiz-adv-x="372" d="M334 653 L334 715 L285 715 C199 715 149 660 149 575 L149 -79 C149 -128 125 -156 76 -156 L37 -156 L37 -218 L87 -218 C173 -218 223 -163 223 -78 L223 576 C223 625 247 653 296 653 L334 653 Z " />
<glyph glyph-name="approxequal" unicode="&#x2248;" horiz-adv-x="539" d="M490 366 L445 411 C406 372 389 367 361 367 C334 367 311 377 283 390 C245 407 213 422 178 422 C133 422 105 409 49 353 L93 309 C132 348 149 353 177 353 C204 353 227 343 255 330 C293 313 326 298 361 298 C406 298 434 310 490 366 L490 366 Z M490 189 L445 234 C406 195 389 189 361 189 C334 189 312 200 284 213 C246 230 213 244 178 244 C133 244 105 232 49 176 L94 131 C133 170 150 176 178 176 C205 176 227 165 255 152 C293 135 326 121 361 121 C406 121 434 133 490 189 L490 189 Z " />
<glyph glyph-name="notequal" unicode="&#x2260;" horiz-adv-x="537" d="M485 151 L485 217 L261 217 L359 320 L485 320 L485 387 L418 387 L485 457 L440 498 L336 387 L52 387 L52 320 L277 320 L178 217 L52 217 L52 151 L119 151 L52 80 L98 40 L201 151 L485 151 Z " />
<glyph glyph-name="lessequal" unicode="&#x2264;" horiz-adv-x="1027" d="M862 -31 L305 527 L820 526 L754 593 L189 593 L189 29 L256 -38 L256 478 L813 -80 L862 -31 Z " />
<glyph glyph-name="greaterequal" unicode="&#x2265;" horiz-adv-x="1027" d="M838 29 L838 593 L273 593 L207 526 L722 527 L165 -31 L214 -80 L771 478 L771 -38 L838 29 Z " />
<glyph glyph-name="lozenge" unicode="&#x25ca;" horiz-adv-x="649" d="M582 352 L325 716 L67 352 L325 -12 L582 352 Z M501 352 L325 97 L148 352 L325 605 L501 352 Z " />
<glyph glyph-name="fi" unicode="&#xfb01;" horiz-adv-x="562" d="M476 639 L476 713 L394 713 L394 639 L476 639 Z M471 0 L471 489 L399 489 L399 0 L471 0 Z M282 434 L282 489 L177 489 L177 580 C177 625 197 652 243 652 L282 652 L282 714 L230 714 C146 714 105 655 105 582 L105 489 L42 489 L42 434 L105 434 L105 0 L177 0 L177 434 L282 434 Z " />
<glyph glyph-name="fl" unicode="&#xfb02;" horiz-adv-x="602" d="M573 0 L573 62 L533 62 C483 62 467 86 467 134 L467 712 L395 712 L395 131 C395 56 435 0 521 0 L573 0 Z M282 434 L282 489 L177 489 L177 580 C177 625 197 652 243 652 L282 652 L282 714 L230 714 C146 714 105 655 105 582 L105 489 L42 489 L42 434 L105 434 L105 0 L177 0 L177 434 L282 434 Z " />
</font>
</svg>
